<?xml version="1.0" encoding="UTF-8" standalone="no"?>
<!-- Created with Inkscape (http://www.inkscape.org/) -->

<svg
   xmlns:dc="http://purl.org/dc/elements/1.1/"
   xmlns:cc="http://creativecommons.org/ns#"
   xmlns:rdf="http://www.w3.org/1999/02/22-rdf-syntax-ns#"
   xmlns:svg="http://www.w3.org/2000/svg"
   xmlns="http://www.w3.org/2000/svg"
   xmlns:sodipodi="http://sodipodi.sourceforge.net/DTD/sodipodi-0.dtd"
   xmlns:inkscape="http://www.inkscape.org/namespaces/inkscape"
   width="300"
   height="300"
   id="svg2"
   version="1.1"
   inkscape:version="0.48.3.1 r9886"
   sodipodi:docname="longitude-latitude.svg">
  <defs
     id="defs4" />
  <sodipodi:namedview
     id="base"
     pagecolor="#ffffff"
     bordercolor="#666666"
     borderopacity="1.0"
     inkscape:pageopacity="0.0"
     inkscape:pageshadow="2"
     inkscape:zoom="1.6610794"
     inkscape:cx="155.01525"
     inkscape:cy="100.73158"
     inkscape:document-units="px"
     inkscape:current-layer="layer1"
     showgrid="true"
     fit-margin-top="0"
     fit-margin-left="0"
     fit-margin-right="0"
     fit-margin-bottom="0"
     inkscape:window-width="1249"
     inkscape:window-height="1005"
     inkscape:window-x="0"
     inkscape:window-y="0"
     inkscape:window-maximized="1">
    <inkscape:grid
       type="xygrid"
       id="grid3977"
       empspacing="5"
       visible="true"
       enabled="true"
       snapvisiblegridlinesonly="true"
       spacingx="10px"
       spacingy="10px"
       originx="-150px"
       originy="-350px" />
  </sodipodi:namedview>
  <metadata
     id="metadata7">
    <rdf:RDF>
      <cc:Work
         rdf:about="">
        <dc:format>image/svg+xml</dc:format>
        <dc:type
           rdf:resource="http://purl.org/dc/dcmitype/StillImage" />
        <dc:title></dc:title>
      </cc:Work>
    </rdf:RDF>
  </metadata>
  <g
     inkscape:label="Calque 1"
     inkscape:groupmode="layer"
     id="layer1"
     transform="translate(-150,-402.36218)">
    <path
       sodipodi:nodetypes="csc"
       inkscape:connector-curvature="0"
       id="path3854"
       d="m 400,552.375 c 0,-11.04569 -44.77153,-20 -100,-20 -55.22847,0 -100,8.95431 -100,20"
       style="color:#000000;fill:none;stroke:#000000;stroke-width:1.25;stroke-linecap:butt;stroke-miterlimit:4;stroke-opacity:1;stroke-dasharray:3.75, 3.75;stroke-dashoffset:0;marker:none;visibility:visible;display:inline;overflow:visible;enable-background:accumulate" />
    <path
       sodipodi:type="arc"
       style="color:#000000;fill:none;stroke:#000000;stroke-width:1.5625;stroke-miterlimit:4;stroke-opacity:1;stroke-dasharray:none;marker:none;visibility:visible;display:inline;overflow:visible;enable-background:accumulate"
       id="path2987"
       sodipodi:cx="325"
       sodipodi:cy="577.36218"
       sodipodi:rx="125"
       sodipodi:ry="125"
       d="m 450,577.36218 c 0,69.0356 -55.96441,125 -125,125 -69.03559,0 -125,-55.9644 -125,-125 0,-69.03559 55.96441,-125 125,-125 69.03559,0 125,55.96441 125,125 z"
       transform="matrix(0.8,0,0,0.8,40,90.472437)" />
    <g
       id="g3774">
      <g
         transform="translate(-7.5,0)"
         style="font-size:12px;font-style:normal;font-weight:normal;line-height:125%;letter-spacing:0px;word-spacing:0px;fill:#000000;fill-opacity:1;stroke:none;font-family:Bitstream Vera Sans"
         id="text3905">
        <path
           style="fill:#ffffff;fill-opacity:1"
           d="m 282.60829,527.04104 -11.27707,-0.74496 0.38225,7.37097 3.06778,8.02045 12.71875,-9.32532 z"
           id="path3912"
           inkscape:connector-curvature="0"
           sodipodi:nodetypes="cccccc" />
      </g>
      <path
         sodipodi:nodetypes="csc"
         inkscape:connector-curvature="0"
         id="path3767"
         d="m 300,452.375 c -11.04569,0 -20,44.77153 -20,100 0,55.22847 8.95431,100 20,100"
         style="color:#000000;fill:none;stroke:#000000;stroke-width:1.25;stroke-linecap:butt;stroke-miterlimit:4;stroke-opacity:1;stroke-dasharray:none;stroke-dashoffset:0;marker:none;visibility:visible;display:inline;overflow:visible;enable-background:accumulate" />
      <path
         sodipodi:nodetypes="csc"
         inkscape:connector-curvature="0"
         id="path2991"
         d="m 300,652.375 c 11.04569,0 20,-44.77153 20,-100 0,-55.22847 -8.95431,-100 -20,-100"
         style="color:#000000;fill:none;stroke:#000000;stroke-width:1.25;stroke-linecap:butt;stroke-miterlimit:4;stroke-opacity:1;stroke-dasharray:3.75, 3.75;stroke-dashoffset:0;marker:none;visibility:visible;display:inline;overflow:visible;enable-background:accumulate" />
      <path
         style="color:#000000;fill:none;stroke:#000000;stroke-width:1.25;stroke-linecap:butt;stroke-miterlimit:4;stroke-opacity:1;stroke-dasharray:none;stroke-dashoffset:0;marker:none;visibility:visible;display:none;overflow:visible;enable-background:accumulate"
         d="m 300,452.375 c -11.04569,0 -20,44.77153 -20,100 0,55.22847 8.95431,100 20,100"
         id="path3843"
         inkscape:connector-curvature="0"
         sodipodi:nodetypes="csc" />
      <g
         transform="translate(-7.5,0)"
         style="font-size:12px;font-style:normal;font-weight:normal;line-height:125%;letter-spacing:0px;word-spacing:0px;fill:#000000;fill-opacity:1;stroke:none;font-family:Bitstream Vera Sans"
         id="text3834">
        <path
           d="m 271.36373,541.4236 0.0305,-1.1832 7.74938,0.19958 0.10968,-4.25835 0.99576,0.0256 -0.14015,5.44156 -8.74514,-0.22523"
           style=""
           id="path4001" />
        <path
           d="m 277.29225,528.05953 c -0.0424,0.87007 0.0278,1.47771 0.21043,1.82294 0.18265,0.34523 0.51392,0.52952 0.99382,0.55289 0.38236,0.0186 0.69276,-0.0914 0.93122,-0.33011 0.23474,-0.24277 0.36265,-0.5807 0.38374,-1.01378 0.0291,-0.59695 -0.15836,-1.08516 -0.56226,-1.46463 -0.40761,-0.38355 -0.96256,-0.59242 -1.66485,-0.62662 l -0.23995,-0.0117 -0.0521,1.071 m -0.34021,-2.1695 3.73971,0.18208 -0.0524,1.07685 -0.99491,-0.0484 c 0.38599,0.26518 0.66566,0.5858 0.83898,0.96186 0.16942,0.37587 0.24121,0.82912 0.21538,1.35974 -0.0327,0.67108 -0.24598,1.19648 -0.63991,1.57621 -0.39764,0.37564 -0.9125,0.54807 -1.54456,0.5173 -0.73741,-0.0359 -1.28142,-0.30878 -1.63205,-0.81862 -0.35042,-0.51374 -0.5018,-1.26027 -0.45412,-2.23958 l 0.0735,-1.50993 -0.10534,-0.005 c -0.4955,-0.0241 -0.88584,0.12114 -1.17101,0.43576 -0.28888,0.31054 -0.44766,0.76038 -0.47635,1.34952 -0.0182,0.37456 0.009,0.74155 0.0813,1.10097 0.0725,0.35941 0.19044,0.70736 0.35395,1.04383 l -0.99491,-0.0484 c -0.13297,-0.40147 -0.2275,-0.78934 -0.28359,-1.1636 -0.06,-0.37445 -0.0814,-0.73725 -0.0643,-1.0884 0.0462,-0.94809 0.32645,-1.64427 0.84084,-2.08854 0.51441,-0.44425 1.27102,-0.64206 2.26983,-0.59344"
           style=""
           id="path4003" />
        <path
           d="m 272.7384,518.37413 1.85857,0.13244 0.15785,-2.21508 0.83577,0.0596 -0.15785,2.21509 3.55349,0.25322 c 0.53381,0.038 0.88182,-0.01 1.04405,-0.14295 0.16251,-0.13723 0.25973,-0.42989 0.29166,-0.87798 l 0.0787,-1.10462 0.90006,0.0641 -0.0787,1.10462 c -0.0591,0.82993 -0.25386,1.39173 -0.58416,1.6854 -0.3342,0.29339 -0.91042,0.41094 -1.72866,0.35263 l -3.55349,-0.25322 -0.0562,0.78902 -0.83577,-0.0596 0.0562,-0.78902 -1.85857,-0.13244 0.077,-1.08124"
           style=""
           id="path4005" />
        <path
           d="m 275.20275,510.93881 0.0977,-1.07369 6.53548,0.5949 -0.0977,1.07369 -6.53548,-0.5949 m -2.54417,-0.23159 0.0977,-1.07369 1.35962,0.12376 -0.0977,1.07369 -1.35961,-0.12376"
           style=""
           id="path4007" />
        <path
           d="m 274.19098,502.41086 1.85145,0.20961 0.24982,-2.20661 0.83257,0.0943 -0.24981,2.2066 3.53988,0.40076 c 0.53176,0.0602 0.88146,0.0271 1.0491,-0.0994 0.16807,-0.13036 0.27738,-0.41872 0.32791,-0.86509 l 0.12458,-1.10039 0.89661,0.10151 -0.12457,1.10039 c -0.0936,0.82675 -0.31152,1.37997 -0.65374,1.65965 -0.34611,0.27924 -0.92672,0.37273 -1.74183,0.28045 l -3.53988,-0.40076 -0.089,0.78599 -0.83257,-0.0942 0.089,-0.786 -1.85145,-0.20961 0.12194,-1.0771"
           style=""
           id="path4009" />
        <path
           d="m 280.89366,495.6821 -3.93048,-0.57737 0.15669,-1.06668 3.8899,0.57141 c 0.6145,0.0903 1.09394,0.0383 1.43832,-0.1559 0.34052,-0.19476 0.54597,-0.53176 0.61637,-1.011 0.0846,-0.57584 -0.0323,-1.05692 -0.35061,-1.44323 -0.31776,-0.39016 -0.79355,-0.6318 -1.42738,-0.72491 l -3.6812,-0.54075 0.15669,-1.06668 6.49282,0.95377 -0.15669,1.06667 -0.99711,-0.14647 c 0.35617,0.31685 0.60561,0.66145 0.74833,1.0338 0.13941,0.36792 0.17591,0.77797 0.10948,1.23014 -0.10957,0.74591 -0.42462,1.27803 -0.94517,1.59638 -0.52054,0.31836 -1.2272,0.41196 -2.11996,0.28082"
           style=""
           id="path4011" />
        <path
           d="m 280.64525,479.33376 -3.48285,-0.69124 0.20989,-1.0575 8.94275,1.77488 -0.20988,1.0575 -0.96554,-0.19164 c 0.33905,0.29828 0.5686,0.63655 0.68867,1.01481 0.11699,0.37368 0.12834,0.79807 0.034,1.27318 -0.15437,0.7778 -0.59057,1.35032 -1.30862,1.71756 -0.71728,0.36341 -1.58168,0.44473 -2.5932,0.24398 -1.01151,-0.20076 -1.77934,-0.60604 -2.30347,-1.21583 -0.52337,-0.61363 -0.70786,-1.30934 -0.5535,-2.08714 0.0943,-0.4751 0.26878,-0.86261 0.52344,-1.16253 0.25159,-0.3045 0.59102,-0.52984 1.01827,-0.67603 m 1.53199,4.04954 c 0.7778,0.15438 1.42048,0.11666 1.92805,-0.11315 0.50451,-0.23439 0.81227,-0.63129 0.92329,-1.19069 0.11103,-0.5594 -0.0218,-1.04375 -0.39858,-1.45305 -0.38058,-0.41006 -0.95976,-0.69227 -1.73756,-0.84665 -0.7778,-0.15436 -1.41895,-0.11435 -1.92345,0.12004 -0.50833,0.23364 -0.81801,0.63016 -0.92904,1.18956 -0.11102,0.5594 0.0238,1.04413 0.40433,1.45419 0.37751,0.40547 0.95516,0.68539 1.73296,0.83975"
           style=""
           id="path4013" />
        <path
           d="m 285.7771,467.11002 0.50772,0.14254 -1.33991,4.77251 c 0.72724,0.15548 1.33274,0.0942 1.81652,-0.1838 0.48108,-0.28283 0.81823,-0.76837 1.01146,-1.45661 0.11192,-0.39864 0.17126,-0.79785 0.17801,-1.19763 0.008,-0.40353 -0.0343,-0.81704 -0.12643,-1.24051 l 0.98158,0.27558 c 0.0534,0.41668 0.0666,0.83219 0.0395,1.24654 -0.0271,0.41436 -0.0971,0.82275 -0.21008,1.22515 -0.28297,1.00791 -0.80069,1.72473 -1.55315,2.15046 -0.75141,0.42198 -1.6273,0.49254 -2.62769,0.21167 -1.03423,-0.29036 -1.77595,-0.79884 -2.22519,-1.52544 -0.45192,-0.73142 -0.54485,-1.57099 -0.27877,-2.51873 0.23863,-0.84994 0.70164,-1.44417 1.38904,-1.78269 0.6847,-0.34332 1.49716,-0.383 2.43736,-0.11904 m -0.59605,0.95246 c -0.56999,-0.15191 -1.06805,-0.1193 -1.49416,0.0978 -0.42506,0.21337 -0.70938,0.57579 -0.85299,1.08725 -0.1626,0.57918 -0.1294,1.08957 0.0996,1.53119 0.23006,0.43786 0.6348,0.76653 1.21423,0.986 l 1.03333,-3.70225"
           style=""
           id="path4015" />
      </g>
      <path
         sodipodi:nodetypes="csc"
         inkscape:connector-curvature="0"
         id="path3864"
         d="m 300,652.375 c -11.04569,0 -20,-44.77153 -20,-100 0,-55.22847 8.95431,-100 20,-100"
         style="color:#000000;fill:none;stroke:#000000;stroke-width:1.25;stroke-linecap:butt;stroke-miterlimit:4;stroke-opacity:1;stroke-dasharray:none;stroke-dashoffset:0;marker:none;visibility:visible;display:none;overflow:visible;enable-background:accumulate" />
    </g>
    <text
       xml:space="preserve"
       style="font-size:8px;font-style:normal;font-weight:normal;line-height:125%;letter-spacing:0px;word-spacing:0px;fill:#000000;fill-opacity:1;stroke:none;font-family:Bitstream Vera Sans"
       x="258.57144"
       y="566.29077"
       id="text3787"
       sodipodi:linespacing="125%"
       inkscape:transform-center-x="0.50976562"
       inkscape:transform-center-y="-2.5078125"><tspan
         sodipodi:role="line"
         id="tspan3789"
         x="258.57144"
         y="566.29077">(0,0)</tspan></text>
    <text
       sodipodi:linespacing="125%"
       id="text3791"
       y="447.36218"
       x="277.15234"
       style="font-size:8px;font-style:normal;font-weight:normal;line-height:125%;letter-spacing:0px;word-spacing:0px;fill:#000000;fill-opacity:1;stroke:none;font-family:Bitstream Vera Sans"
       xml:space="preserve"><tspan
         y="447.36218"
         x="277.15234"
         id="tspan3793"
         sodipodi:role="line">(0,90) Nord</tspan></text>
    <text
       xml:space="preserve"
       style="font-size:8px;font-style:normal;font-weight:normal;line-height:125%;letter-spacing:0px;word-spacing:0px;fill:#000000;fill-opacity:1;stroke:none;font-family:Bitstream Vera Sans"
       x="277.64453"
       y="662.36218"
       id="text3795"
       sodipodi:linespacing="125%"><tspan
         sodipodi:role="line"
         id="tspan3797"
         x="277.64453"
         y="662.36218">(0,-90) Sud</tspan></text>
    <text
       sodipodi:linespacing="125%"
       id="text3799"
       y="552.36218"
       x="410"
       style="font-size:8px;font-style:normal;font-weight:normal;line-height:125%;letter-spacing:0px;word-spacing:0px;fill:#000000;fill-opacity:1;stroke:none;font-family:Bitstream Vera Sans"
       xml:space="preserve"><tspan
         y="552.36218"
         x="410"
         id="tspan3801"
         sodipodi:role="line">Est</tspan></text>
    <text
       sodipodi:linespacing="125%"
       id="text3799-4"
       y="552.36218"
       x="191.3644"
       style="font-size:8px;font-style:normal;font-weight:normal;text-align:end;line-height:125%;letter-spacing:0px;word-spacing:0px;text-anchor:end;fill:#000000;fill-opacity:1;stroke:none;font-family:Bitstream Vera Sans"
       xml:space="preserve"><tspan
         y="552.36218"
         x="191.3644"
         id="tspan3801-2"
         sodipodi:role="line">Ouest</tspan></text>
    <text
       inkscape:transform-center-y="-2.5078125"
       inkscape:transform-center-x="0.50976562"
       sodipodi:linespacing="125%"
       id="text3824"
       y="527.36218"
       x="326.07144"
       style="font-size:8px;font-style:normal;font-weight:normal;line-height:125%;letter-spacing:0px;word-spacing:0px;fill:#000000;fill-opacity:1;stroke:none;font-family:Bitstream Vera Sans"
       xml:space="preserve"><tspan
         y="527.36218"
         x="326.07144"
         id="tspan3826"
         sodipodi:role="line">(180,0)</tspan></text>
    <g
       id="text3880"
       style="font-size:12px;font-style:normal;font-weight:normal;line-height:125%;letter-spacing:0px;word-spacing:0px;fill:#ffffff;fill-opacity:1;stroke:none;font-family:Bitstream Vera Sans"
       transform="matrix(0,-1,1,0,-252.375,844.875)">
      <path
         style="fill:#ffffff;fill-opacity:1"
         d="m 288.71875,565.0625 c -4.34802,0.12204 -12.58902,-1.33038 -12.8125,5.15625 0.45589,3.25061 -0.45272,8.42311 4.34375,8.71875 4.63981,0.71705 11.11223,-1.01506 10.84375,-6.6875 -0.40779,-2.18376 0.91644,-8.17175 -2.375,-7.1875 z"
         id="path3889"
         inkscape:connector-curvature="0" />
    </g>
    <path
       sodipodi:nodetypes="csc"
       inkscape:connector-curvature="0"
       id="path3852"
       d="m 200,552.375 c 0,11.04569 44.77153,20 100,20 55.22847,0 100,-8.95431 100,-20"
       style="color:#000000;fill:none;stroke:#000000;stroke-width:1.25;stroke-linecap:butt;stroke-miterlimit:4;stroke-opacity:1;stroke-dasharray:none;stroke-dashoffset:0;marker:none;visibility:visible;display:inline;overflow:visible;enable-background:accumulate" />
    <g
       transform="matrix(0,-1,1,0,-252.375,844.875)"
       style="font-size:12px;font-style:normal;font-weight:normal;line-height:125%;letter-spacing:0px;word-spacing:0px;fill:#000000;fill-opacity:1;stroke:none;font-family:Bitstream Vera Sans"
       id="text3858">
      <path
         d="m 288.76374,547.86067 -0.006,1.18358 -7.75187,-0.0365 -0.02,4.25972 -0.99609,-0.005 0.0256,-5.4433 8.74795,0.0412"
         style=""
         id="path4018" />
      <path
         d="m 285.87611,560.72051 c -0.01,-0.57805 -0.24385,-1.03123 -0.70252,-1.35954 -0.45478,-0.32838 -1.07469,-0.48601 -1.85973,-0.47288 -0.78505,0.0131 -1.40132,0.18948 -1.84883,0.52904 -0.44354,0.3434 -0.66044,0.80608 -0.65071,1.38803 0.01,0.57413 0.24374,1.02536 0.70242,1.35368 0.45868,0.3283 1.07859,0.48593 1.85973,0.47287 0.77723,-0.013 1.38957,-0.19124 1.83702,-0.5347 0.45134,-0.34353 0.67222,-0.80237 0.66262,-1.3765 m 0.91394,-0.0153 c 0.0157,0.93737 -0.27667,1.67869 -0.877,2.22396 -0.60035,0.54527 -1.43951,0.82692 -2.51747,0.84495 -1.07408,0.018 -1.92218,-0.23548 -2.54432,-0.7603 -0.61824,-0.52489 -0.9352,-1.25602 -0.95088,-2.19339 -0.0157,-0.94127 0.27656,-1.68455 0.8769,-2.22982 0.60431,-0.54143 1.4435,-0.82112 2.51757,-0.83909 1.07797,-0.018 1.92605,0.23345 2.54423,0.75444 0.61823,0.52489 0.93522,1.25797 0.95097,2.19925"
         style=""
         id="path4020" />
      <path
         d="m 284.45804,574.72011 -3.95777,0.15852 -0.0431,-1.07726 3.92263,-0.15711 c 0.62059,-0.0249 1.08022,-0.16447 1.37888,-0.4188 0.29864,-0.25435 0.43828,-0.62352 0.4189,-1.1075 -0.0233,-0.58157 -0.22707,-1.03276 -0.6113,-1.35357 -0.38425,-0.32082 -0.89643,-0.46841 -1.53653,-0.44277 l -3.70602,0.14844 -0.0434,-1.08312 6.55724,-0.26264 0.0434,1.08312 -1.01872,0.0408 c 0.40453,0.24182 0.71133,0.5325 0.92041,0.87207 0.20922,0.34346 0.32297,0.74352 0.34127,1.20019 0.0302,0.7533 -0.18119,1.33253 -0.63409,1.73771 -0.449,0.40501 -1.12625,0.62565 -2.03177,0.66192"
         style=""
         id="path4022" />
      <path
         d="m 284.44703,584.94387 c 0.77957,-0.0511 1.37314,-0.25248 1.7807,-0.60411 0.40781,-0.34774 0.59267,-0.812 0.55461,-1.39278 -0.0378,-0.57689 -0.28173,-1.01304 -0.7317,-1.30846 -0.44972,-0.29151 -1.06437,-0.41172 -1.84394,-0.36061 -0.77568,0.0508 -1.36743,0.25014 -1.77524,0.59788 -0.40756,0.35163 -0.59243,0.81589 -0.55461,1.39278 0.0381,0.58078 0.28197,1.01693 0.73169,1.30845 0.44998,0.29541 1.0628,0.41769 1.83849,0.36685 m -2.467,1.24217 c -1.11479,0.0731 -1.95932,-0.12014 -2.53358,-0.57965 -0.57815,-0.45926 -0.9007,-1.19951 -0.96766,-2.22075 -0.0248,-0.3781 -0.0189,-0.73667 0.0176,-1.07572 0.0326,-0.3388 0.097,-0.66989 0.19325,-0.99328 l 1.04658,-0.0686 c -0.15081,0.32697 -0.25704,0.6471 -0.31871,0.9604 -0.0617,0.3133 -0.082,0.62976 -0.0611,0.94939 0.0463,0.70551 0.26603,1.22154 0.65933,1.54808 0.3894,0.32678 0.95634,0.46577 1.70084,0.41697 l 0.53206,-0.0349 c -0.40046,-0.19689 -0.70755,-0.46252 -0.92129,-0.79691 -0.21374,-0.33439 -0.33645,-0.74326 -0.36814,-1.22659 -0.0526,-0.80297 0.21093,-1.47007 0.7907,-2.00133 0.57977,-0.53125 1.37443,-0.82997 2.38398,-0.89615 1.01344,-0.0664 1.84225,0.12585 2.48642,0.57686 0.64416,0.45102 0.99256,1.07801 1.04521,1.88097 0.0317,0.48334 -0.0366,0.90472 -0.20485,1.26416 -0.16826,0.35943 -0.43805,0.66288 -0.80937,0.91036 l 0.99396,-0.0652 0.0705,1.07582 -5.73574,0.37602"
         style=""
         id="path4024" />
      <path
         d="m 288.19081,591.68239 0.095,1.07393 -6.53696,0.57847 -0.095,-1.07393 6.53696,-0.57847 m 2.54474,-0.22518 0.095,1.07393 -1.35992,0.12034 -0.095,-1.07393 1.35992,-0.12034"
         style=""
         id="path4026" />
      <path
         d="m 290.83196,599.51204 -1.85204,0.20435 0.24354,2.20731 -0.83283,0.0919 -0.24355,-2.20731 -3.54101,0.39069 c -0.53193,0.0587 -0.86568,0.16822 -1.00125,0.32859 -0.13515,0.16424 -0.17809,0.46962 -0.12882,0.91613 l 0.12145,1.10075 -0.8969,0.099 -0.12145,-1.10075 c -0.0913,-0.82701 -8.6e-4,-1.41469 0.27117,-1.76303 0.27592,-0.34877 0.82156,-0.56813 1.63692,-0.65809 l 3.54102,-0.3907 -0.0867,-0.78624 0.83283,-0.0919 0.0867,0.78624 1.85204,-0.20434 0.11888,1.07744"
         style=""
         id="path4028" />
      <path
         d="m 285.89126,607.36949 3.93249,-0.56355 0.15294,1.06723 -3.89189,0.55773 c -0.61481,0.0881 -1.05971,0.27419 -1.33469,0.55826 -0.27112,0.28351 -0.37232,0.66501 -0.30361,1.14449 0.0826,0.57614 0.33135,1.00416 0.74635,1.28406 0.41554,0.28376 0.94039,0.38021 1.57454,0.28933 l 3.68308,-0.52781 0.15294,1.06723 -6.49614,0.93093 -0.15294,-1.06722 0.99762,-0.14296 c -0.43153,-0.20256 -0.76863,-0.46205 -1.01128,-0.77848 -0.23824,-0.31313 -0.38977,-0.69589 -0.4546,-1.1483 -0.10695,-0.74628 0.0439,-1.34601 0.45247,-1.79917 0.4086,-0.45318 1.0595,-0.74376 1.95272,-0.87177"
         style=""
         id="path4030" />
      <path
         d="m 291.37817,622.33477 3.48623,-0.67395 0.20464,1.05852 -8.95146,1.73049 -0.20463,-1.05853 0.96648,-0.18684 c -0.42653,-0.14831 -0.76675,-0.37496 -1.02066,-0.67996 -0.24934,-0.30192 -0.41998,-0.69066 -0.51191,-1.16623 -0.15051,-0.77855 0.0374,-1.47334 0.56385,-2.08436 0.52714,-0.60719 1.29697,-1.00865 2.30947,-1.20438 1.0125,-0.19574 1.87649,-0.11012 2.59196,0.25684 0.71621,0.3708 1.14957,0.94548 1.30009,1.72403 0.0919,0.47557 0.0765,0.90027 -0.0461,1.2741 -0.11811,0.37693 -0.34743,0.71368 -0.68794,1.01027 m -2.94668,-3.1722 c -0.77856,0.15051 -1.35951,0.42793 -1.74286,0.83226 -0.37877,0.40742 -0.51403,0.89111 -0.40578,1.45105 0.10824,0.55995 0.41403,0.95837 0.91737,1.19527 0.50716,0.23615 1.15002,0.27897 1.92858,0.12847 0.77855,-0.15052 1.35721,-0.42948 1.73599,-0.8369 0.3826,-0.40817 0.51978,-0.89223 0.41154,-1.45217 -0.10825,-0.55995 -0.41596,-0.958 -0.92312,-1.19415 -0.5026,-0.23306 -1.14317,-0.27434 -1.92172,-0.12383"
         style=""
         id="path4032" />
      <path
         d="m 292.3429,634.83115 -0.50892,0.13819 -1.29899,-4.7838 c -0.70397,0.23972 -1.19224,0.60302 -1.4648,1.0899 -0.26777,0.48962 -0.30799,1.07937 -0.12066,1.76923 0.1085,0.39959 0.26243,0.77268 0.46179,1.11928 0.20037,0.35035 0.44873,0.68363 0.74508,0.99985 l -0.98391,0.26716 c -0.25967,-0.33021 -0.4842,-0.68009 -0.67359,-1.04961 -0.18939,-0.36954 -0.33885,-0.75599 -0.44838,-1.15935 -0.27434,-1.01029 -0.19782,-1.8912 0.22955,-2.64274 0.42839,-0.74777 1.14396,-1.25779 2.14671,-1.53008 1.03668,-0.2815 1.93423,-0.22569 2.69266,0.16742 0.76322,0.39587 1.2738,1.06878 1.53177,2.01876 0.23133,0.85196 0.13886,1.59958 -0.27742,2.24287 -0.4115,0.64603 -1.08846,1.097 -2.03089,1.35292 m 0.0228,-1.12337 c 0.56717,-0.16211 0.97792,-0.44567 1.23224,-0.85068 0.25534,-0.40125 0.3134,-0.85822 0.17419,-1.3709 -0.15765,-0.58054 -0.44805,-1.00158 -0.87121,-1.2631 -0.42215,-0.25776 -0.93819,-0.33217 -1.54814,-0.22321 l 1.01292,3.70789"
         style=""
         id="path4034" />
    </g>
  </g>
</svg>
