<?xml version="1.0" encoding="UTF-8" standalone="no"?>
<!-- Created with Inkscape (http://www.inkscape.org/) -->

<svg
   xmlns:dc="http://purl.org/dc/elements/1.1/"
   xmlns:cc="http://creativecommons.org/ns#"
   xmlns:rdf="http://www.w3.org/1999/02/22-rdf-syntax-ns#"
   xmlns:svg="http://www.w3.org/2000/svg"
   xmlns="http://www.w3.org/2000/svg"
   xmlns:xlink="http://www.w3.org/1999/xlink"
   xmlns:sodipodi="http://sodipodi.sourceforge.net/DTD/sodipodi-0.dtd"
   xmlns:inkscape="http://www.inkscape.org/namespaces/inkscape"
   width="290"
   height="210"
   id="svg2"
   version="1.1"
   inkscape:version="0.48.3.1 r9886"
   sodipodi:docname="relation.svg">
  <defs
     id="defs4">
    <marker
       inkscape:stockid="Arrow1Mend"
       orient="auto"
       refY="0"
       refX="0"
       id="Arrow1Mend"
       style="overflow:visible">
      <path
         id="path3786"
         d="M 0,0 5,-5 -12.5,0 5,5 0,0 z"
         style="fill-rule:evenodd;stroke:#000000;stroke-width:1pt"
         transform="matrix(-0.4,0,0,-0.4,-4,0)"
         inkscape:connector-curvature="0" />
    </marker>
    <marker
       inkscape:stockid="TriangleOutL"
       orient="auto"
       refY="0"
       refX="0"
       id="TriangleOutL"
       style="overflow:visible">
      <path
         id="path3919"
         d="m 5.77,0 -8.65,5 0,-10 8.65,5 z"
         style="fill-rule:evenodd;stroke:#000000;stroke-width:1pt"
         transform="scale(0.8,0.8)"
         inkscape:connector-curvature="0" />
    </marker>
    <marker
       inkscape:stockid="Arrow2Send"
       orient="auto"
       refY="0"
       refX="0"
       id="Arrow2Send"
       style="overflow:visible">
      <path
         id="path3810"
         style="fill-rule:evenodd;stroke-width:0.625;stroke-linejoin:round"
         d="M 8.7185878,4.0337352 -2.2072895,0.01601326 8.7185884,-4.0017078 c -1.7454984,2.3720609 -1.7354408,5.6174519 -6e-7,8.035443 z"
         transform="matrix(-0.3,0,0,-0.3,0.69,0)"
         inkscape:connector-curvature="0" />
    </marker>
    <marker
       inkscape:stockid="Arrow2Mend"
       orient="auto"
       refY="0"
       refX="0"
       id="Arrow2Mend"
       style="overflow:visible">
      <path
         id="path3804"
         style="fill-rule:evenodd;stroke-width:0.625;stroke-linejoin:round"
         d="M 8.7185878,4.0337352 -2.2072895,0.01601326 8.7185884,-4.0017078 c -1.7454984,2.3720609 -1.7354408,5.6174519 -6e-7,8.035443 z"
         transform="scale(-0.6,-0.6)"
         inkscape:connector-curvature="0" />
    </marker>
    <marker
       inkscape:stockid="Arrow2Lend"
       orient="auto"
       refY="0"
       refX="0"
       id="Arrow2Lend"
       style="overflow:visible">
      <path
         id="path3798"
         style="fill-rule:evenodd;stroke-width:0.625;stroke-linejoin:round"
         d="M 8.7185878,4.0337352 -2.2072895,0.01601326 8.7185884,-4.0017078 c -1.7454984,2.3720609 -1.7354408,5.6174519 -6e-7,8.035443 z"
         transform="matrix(-1.1,0,0,-1.1,-1.1,0)"
         inkscape:connector-curvature="0" />
    </marker>
    <marker
       inkscape:stockid="Arrow2Mend"
       orient="auto"
       refY="0"
       refX="0"
       id="Arrow2Mend-2"
       style="overflow:visible">
      <path
         inkscape:connector-curvature="0"
         id="path3804-7"
         style="fill-rule:evenodd;stroke-width:0.625;stroke-linejoin:round"
         d="M 8.7185878,4.0337352 -2.2072895,0.01601326 8.7185884,-4.0017078 c -1.7454984,2.3720609 -1.7354408,5.6174519 -6e-7,8.035443 z"
         transform="scale(-0.6,-0.6)" />
    </marker>
    <marker
       inkscape:stockid="Arrow2Mend"
       orient="auto"
       refY="0"
       refX="0"
       id="Arrow2Mend-8"
       style="overflow:visible">
      <path
         inkscape:connector-curvature="0"
         id="path3804-0"
         style="fill-rule:evenodd;stroke-width:0.625;stroke-linejoin:round"
         d="M 8.7185878,4.0337352 -2.2072895,0.01601326 8.7185884,-4.0017078 c -1.7454984,2.3720609 -1.7354408,5.6174519 -6e-7,8.035443 z"
         transform="scale(-0.6,-0.6)" />
    </marker>
    <marker
       inkscape:stockid="Arrow2Mend"
       orient="auto"
       refY="0"
       refX="0"
       id="Arrow2Mend-7"
       style="overflow:visible">
      <path
         inkscape:connector-curvature="0"
         id="path3804-3"
         style="fill-rule:evenodd;stroke-width:0.625;stroke-linejoin:round"
         d="M 8.7185878,4.0337352 -2.2072895,0.01601326 8.7185884,-4.0017078 c -1.7454984,2.3720609 -1.7354408,5.6174519 -6e-7,8.035443 z"
         transform="scale(-0.6,-0.6)" />
    </marker>
    <marker
       inkscape:stockid="Arrow1Mend"
       orient="auto"
       refY="0"
       refX="0"
       id="Arrow1Mend-0"
       style="overflow:visible">
      <path
         inkscape:connector-curvature="0"
         id="path3786-4"
         d="M 0,0 5,-5 -12.5,0 5,5 0,0 z"
         style="fill-rule:evenodd;stroke:#000000;stroke-width:1pt"
         transform="matrix(-0.4,0,0,-0.4,-4,0)" />
    </marker>
    <marker
       inkscape:stockid="Arrow2Mend"
       orient="auto"
       refY="0"
       refX="0"
       id="Arrow2Mend-1"
       style="overflow:visible">
      <path
         inkscape:connector-curvature="0"
         id="path3804-2"
         style="fill-rule:evenodd;stroke-width:0.625;stroke-linejoin:round"
         d="M 8.7185878,4.0337352 -2.2072895,0.01601326 8.7185884,-4.0017078 c -1.7454984,2.3720609 -1.7354408,5.6174519 -6e-7,8.035443 z"
         transform="scale(-0.6,-0.6)" />
    </marker>
    <marker
       inkscape:stockid="Arrow2Mend"
       orient="auto"
       refY="0"
       refX="0"
       id="Arrow2Mend-7-9"
       style="overflow:visible">
      <path
         inkscape:connector-curvature="0"
         id="path3804-3-8"
         style="fill-rule:evenodd;stroke-width:0.625;stroke-linejoin:round"
         d="M 8.7185878,4.0337352 -2.2072895,0.01601326 8.7185884,-4.0017078 c -1.7454984,2.3720609 -1.7354408,5.6174519 -6e-7,8.035443 z"
         transform="scale(-0.6,-0.6)" />
    </marker>
  </defs>
  <sodipodi:namedview
     id="base"
     pagecolor="#ffffff"
     bordercolor="#666666"
     borderopacity="1.0"
     inkscape:pageopacity="0.0"
     inkscape:pageshadow="2"
     inkscape:zoom="1.979899"
     inkscape:cx="158.39624"
     inkscape:cy="86.511476"
     inkscape:document-units="px"
     inkscape:current-layer="layer1"
     showgrid="true"
     inkscape:window-width="1249"
     inkscape:window-height="1005"
     inkscape:window-x="0"
     inkscape:window-y="0"
     inkscape:window-maximized="1"
     fit-margin-top="0"
     fit-margin-left="0"
     fit-margin-right="0"
     fit-margin-bottom="0">
    <inkscape:grid
       type="xygrid"
       id="grid2985"
       empspacing="5"
       visible="true"
       enabled="true"
       snapvisiblegridlinesonly="true"
       spacingx="10px"
       spacingy="10px"
       originx="20px"
       originy="-520px" />
  </sodipodi:namedview>
  <metadata
     id="metadata7">
    <rdf:RDF>
      <cc:Work
         rdf:about="">
        <dc:format>image/svg+xml</dc:format>
        <dc:type
           rdf:resource="http://purl.org/dc/dcmitype/StillImage" />
        <dc:title></dc:title>
      </cc:Work>
    </rdf:RDF>
  </metadata>
  <g
     inkscape:label="Calque 1"
     inkscape:groupmode="layer"
     id="layer1"
     transform="translate(20,-322.36218)">
    <path
       style="color:#000000;fill:#fce94f;fill-opacity:1;fill-rule:nonzero;stroke:none;stroke-width:2.5;marker:none;visibility:visible;display:inline;overflow:visible;enable-background:accumulate"
       d="m 59.999999,402.36218 80.000001,20 0,-60 100,0 10,119.99999 -80,-39.99999 -20,69.99999 -60,-20 z"
       id="path6886-9"
       inkscape:connector-curvature="0"
       sodipodi:nodetypes="ccccccccc" />
    <path
       d="m 160,382.36219 60,0 0,39.99999 z"
       id="path8375"
       inkscape:connector-curvature="0"
       style="fill:#ffffff;fill-opacity:1" />
    <use
       height="1052.3622"
       width="744.09448"
       transform="translate(210,310)"
       id="use8449"
       xlink:href="#g3759"
       y="0"
       x="0" />
    <use
       x="0"
       y="0"
       xlink:href="#g3759"
       id="use8451"
       transform="translate(210,270)"
       width="744.09448"
       height="1052.3622" />
    <use
       height="1052.3622"
       width="744.09448"
       transform="translate(150,270)"
       id="use8453"
       xlink:href="#g3759"
       y="0"
       x="0" />
    <use
       height="1052.3622"
       width="744.09448"
       transform="translate(50,290)"
       id="use8441"
       xlink:href="#g3759"
       y="0"
       x="0" />
    <use
       x="0"
       y="0"
       xlink:href="#g3759"
       id="use8443"
       transform="translate(130,250)"
       width="744.09448"
       height="1052.3622" />
    <use
       height="1052.3622"
       width="744.09448"
       transform="translate(230,250)"
       id="use8445"
       xlink:href="#g3759"
       y="0"
       x="0" />
    <use
       x="0"
       y="0"
       xlink:href="#g3759"
       id="use8447"
       transform="translate(240,370)"
       width="744.09448"
       height="1052.3622" />
    <use
       x="0"
       y="0"
       xlink:href="#g3759"
       id="use8455"
       transform="translate(160,330)"
       width="744.09448"
       height="1052.3622" />
    <use
       height="1052.3622"
       width="744.09448"
       transform="translate(130,310)"
       id="use8457"
       xlink:href="#g3759"
       y="0"
       x="0" />
    <use
       x="0"
       y="0"
       xlink:href="#g3759"
       id="use8459"
       transform="translate(140,400)"
       width="744.09448"
       height="1052.3622" />
    <use
       height="1052.3622"
       width="744.09448"
       transform="translate(80,380)"
       id="use8461"
       xlink:href="#g3759"
       y="0"
       x="0" />
    <g
       id="g3759"
       transform="translate(-90,-90)">
      <path
         transform="matrix(0.25,0,0,0.25,75,151.77164)"
         d="m 110,202.36218 c 0,5.52285 -4.47715,10 -10,10 -5.522847,0 -10,-4.47715 -10,-10 0,-5.52284 4.477153,-10 10,-10 5.52285,0 10,4.47716 10,10 z"
         sodipodi:ry="10"
         sodipodi:rx="10"
         sodipodi:cy="202.36218"
         sodipodi:cx="100"
         id="path2987"
         style="color:#000000;fill:#000000;fill-opacity:1;fill-rule:nonzero;stroke:none;stroke-width:1.25;marker:none;visibility:visible;display:inline;overflow:visible;enable-background:accumulate"
         sodipodi:type="arc" />
    </g>
    <path
       style="color:#000000;fill:#3465a4;fill-opacity:1;fill-rule:nonzero;stroke:#000000;stroke-width:2.5;stroke-linecap:butt;stroke-linejoin:miter;stroke-miterlimit:4;stroke-opacity:1;stroke-dasharray:none;stroke-dashoffset:0;marker:none;marker-end:url(#Arrow2Mend-7);visibility:visible;display:inline;overflow:visible;enable-background:accumulate"
       d="m 60,402.36218 80,20"
       id="path7928"
       inkscape:connector-curvature="0" />
    <path
       style="color:#000000;fill:#3465a4;fill-opacity:1;fill-rule:nonzero;stroke:#000000;stroke-width:2.5;stroke-linecap:butt;stroke-linejoin:miter;stroke-miterlimit:4;stroke-opacity:1;stroke-dasharray:none;stroke-dashoffset:0;marker:none;marker-end:url(#Arrow2Mend-7);visibility:visible;display:inline;overflow:visible;enable-background:accumulate"
       d="m 140,422.36218 0,-60"
       id="path7926"
       inkscape:connector-curvature="0" />
    <path
       style="color:#000000;fill:#3465a4;fill-opacity:1;fill-rule:nonzero;stroke:#000000;stroke-width:2.5;stroke-linecap:butt;stroke-linejoin:miter;stroke-miterlimit:4;stroke-opacity:1;stroke-dasharray:none;stroke-dashoffset:0;marker:none;marker-end:url(#Arrow2Mend-7);visibility:visible;display:inline;overflow:visible;enable-background:accumulate"
       d="m 140,362.36218 100,0"
       id="path7924"
       inkscape:connector-curvature="0" />
    <path
       style="color:#000000;fill:#3465a4;fill-opacity:1;fill-rule:nonzero;stroke:#000000;stroke-width:2.5;stroke-linecap:butt;stroke-linejoin:miter;stroke-miterlimit:4;stroke-opacity:1;stroke-dasharray:none;stroke-dashoffset:0;marker:none;marker-end:url(#Arrow2Mend-7);visibility:visible;display:inline;overflow:visible;enable-background:accumulate"
       d="m 240,362.36218 10,120"
       id="path7922"
       inkscape:connector-curvature="0" />
    <path
       style="color:#000000;fill:#3465a4;fill-opacity:1;fill-rule:nonzero;stroke:#000000;stroke-width:2.5;stroke-linecap:butt;stroke-linejoin:miter;stroke-miterlimit:4;stroke-opacity:1;stroke-dasharray:none;stroke-dashoffset:0;marker:none;marker-end:url(#Arrow2Mend-7);visibility:visible;display:inline;overflow:visible;enable-background:accumulate"
       d="m 250,482.36218 -80,-40"
       id="path7920"
       inkscape:connector-curvature="0" />
    <path
       style="color:#000000;fill:#3465a4;fill-opacity:1;fill-rule:nonzero;stroke:#000000;stroke-width:2.5;stroke-linecap:butt;stroke-linejoin:miter;stroke-miterlimit:4;stroke-opacity:1;stroke-dasharray:none;stroke-dashoffset:0;marker:none;marker-end:url(#Arrow2Mend-7);visibility:visible;display:inline;overflow:visible;enable-background:accumulate"
       d="m 170,442.36218 -20,70"
       id="path7918"
       inkscape:connector-curvature="0" />
    <path
       style="color:#000000;fill:#3465a4;fill-opacity:1;fill-rule:nonzero;stroke:#000000;stroke-width:2.5;stroke-linecap:butt;stroke-linejoin:miter;stroke-miterlimit:4;stroke-opacity:1;stroke-dasharray:none;stroke-dashoffset:0;marker:none;marker-end:url(#Arrow2Mend-7);visibility:visible;display:inline;overflow:visible;enable-background:accumulate"
       d="m 150,512.36218 -60,-20"
       id="path7916"
       inkscape:connector-curvature="0" />
    <path
       style="color:#000000;fill:#3465a4;fill-opacity:1;fill-rule:nonzero;stroke:#000000;stroke-width:2.5;stroke-linecap:butt;stroke-linejoin:miter;stroke-miterlimit:4;stroke-opacity:1;stroke-dasharray:none;stroke-dashoffset:0;marker:none;marker-end:url(#Arrow2Mend-7);visibility:visible;display:inline;overflow:visible;enable-background:accumulate"
       d="m 90,492.36218 -30,-90"
       id="path6886"
       inkscape:connector-curvature="0" />
    <path
       style="color:#000000;fill:#3465a4;fill-opacity:1;fill-rule:nonzero;stroke:#000000;stroke-width:2.5;stroke-linecap:butt;stroke-linejoin:miter;stroke-miterlimit:4;stroke-opacity:1;stroke-dasharray:none;stroke-dashoffset:0;marker:none;marker-end:url(#Arrow2Mend-7);visibility:visible;display:inline;overflow:visible;enable-background:accumulate"
       d="m 160,382.36219 60,0"
       id="path8427"
       inkscape:connector-curvature="0" />
    <path
       style="color:#000000;fill:#3465a4;fill-opacity:1;fill-rule:nonzero;stroke:#000000;stroke-width:2.5;stroke-linecap:butt;stroke-linejoin:miter;stroke-miterlimit:4;stroke-opacity:1;stroke-dasharray:none;stroke-dashoffset:0;marker:none;marker-end:url(#Arrow2Mend-7);visibility:visible;display:inline;overflow:visible;enable-background:accumulate"
       d="m 220,382.36219 0,39.99999"
       id="path8425"
       inkscape:connector-curvature="0" />
    <path
       style="color:#000000;fill:#3465a4;fill-opacity:1;fill-rule:nonzero;stroke:#000000;stroke-width:2.5;stroke-linecap:butt;stroke-linejoin:miter;stroke-miterlimit:4;stroke-opacity:1;stroke-dasharray:none;stroke-dashoffset:0;marker:none;marker-end:url(#Arrow2Mend-7);visibility:visible;display:inline;overflow:visible;enable-background:accumulate"
       d="M 220,422.36218 160,382.36219"
       id="path8360"
       inkscape:connector-curvature="0" />
    <use
       height="1052.3622"
       width="744.09448"
       transform="translate(90,330)"
       id="use8463"
       xlink:href="#g3759"
       y="0"
       x="0" />
    <text
       xml:space="preserve"
       style="font-size:8px;font-style:normal;font-weight:normal;line-height:125%;letter-spacing:0px;word-spacing:0px;fill:#000000;fill-opacity:1;stroke:none;font-family:Bitstream Vera Sans"
       x="4.2436614"
       y="345.25284"
       id="text8465"
       sodipodi:linespacing="125%"><tspan
         sodipodi:role="line"
         id="tspan8467"
         x="4.2436614"
         y="345.25284">Relation</tspan></text>
    <path
       inkscape:connector-curvature="0"
       id="path10491"
       d="m 20,352.36218 80,90"
       style="fill:none;stroke:#babdb6;stroke-width:1px;stroke-linecap:butt;stroke-linejoin:miter;stroke-opacity:1"
       sodipodi:nodetypes="cc" />
    <path
       sodipodi:nodetypes="cc"
       style="fill:none;stroke:#babdb6;stroke-width:1px;stroke-linecap:butt;stroke-linejoin:miter;stroke-opacity:1"
       d="m 20,352.36218 120,50"
       id="path10493"
       inkscape:connector-curvature="0" />
    <path
       inkscape:connector-curvature="0"
       id="path10495"
       d="m 20,352.36218 160,30"
       style="fill:none;stroke:#babdb6;stroke-width:1px;stroke-linecap:butt;stroke-linejoin:miter;stroke-opacity:1"
       sodipodi:nodetypes="cc" />
    <rect
       style="color:#000000;fill:none;stroke:#000000;stroke-width:2.5;stroke-linecap:round;stroke-linejoin:miter;stroke-miterlimit:4;stroke-opacity:1;stroke-dasharray:none;stroke-dashoffset:0;marker:none;visibility:visible;display:inline;overflow:visible;enable-background:accumulate"
       id="rect8469"
       width="50"
       height="20"
       x="-6.0609155"
       y="332.36218"
       ry="10" />
    <g
       style="font-size:6px;font-style:normal;font-weight:normal;line-height:125%;letter-spacing:0px;word-spacing:0px;fill:#000000;fill-opacity:1;stroke:none;font-family:Bitstream Vera Sans"
       id="text10497">
      <path
         d="m 35.136012,365.20975 c -0.01395,-0.0686 -0.03909,-0.13511 -0.07542,-0.1995 -0.03358,-0.0642 -0.07891,-0.12846 -0.136004,-0.19269 -0.202426,-0.22773 -0.432585,-0.33673 -0.690477,-0.32699 -0.255141,0.01 -0.521389,0.13811 -0.798745,0.38465 l -1.291909,1.14836 -0.36008,-0.40509 2.452437,-2.17994 0.36008,0.40509 -0.381004,0.33867 c 0.224155,-0.0477 0.432336,-0.0354 0.624544,0.0367 0.193661,0.0709 0.376783,0.20339 0.549366,0.39754 0.02465,0.0277 0.04971,0.0603 0.07518,0.0978 0.02692,0.0362 0.0549,0.0779 0.08394,0.1253 l -0.411902,0.37005"
         style=""
         id="path3888" />
      <path
         d="m 36.368799,366.40702 c -0.192046,-0.21605 -0.428531,-0.31158 -0.709455,-0.28661 -0.27947,0.0237 -0.565912,0.16593 -0.859326,0.42675 -0.293418,0.26081 -0.469647,0.52852 -0.528685,0.80312 -0.05628,0.27476 0.01224,0.5209 0.205586,0.73841 0.190743,0.21459 0.426579,0.30939 0.707508,0.28441 0.280925,-0.025 0.567367,-0.16722 0.859326,-0.42674 0.290494,-0.25822 0.464614,-0.52536 0.52236,-0.80142 0.0592,-0.27736 -0.0066,-0.52333 -0.197314,-0.73792 m 0.341589,-0.30364 c 0.311417,0.35035 0.442148,0.72673 0.392195,1.12915 -0.04996,0.40241 -0.276389,0.78268 -0.679286,1.14082 -0.401443,0.35683 -0.805641,0.53711 -1.212593,0.54085 -0.405498,0.002 -0.763955,-0.17153 -1.075375,-0.52188 -0.312719,-0.35181 -0.444099,-0.72892 -0.394141,-1.13133 0.05271,-0.40225 0.279791,-0.78179 0.681232,-1.13863 0.402899,-0.35813 0.806448,-0.53915 1.210648,-0.54304 0.405492,-0.002 0.764599,0.17226 1.07732,0.52406 m 0.931099,-1.11771 0.288064,0.32408 -0.346455,1.26831 -0.270547,-0.30437 0.186122,-0.871 -0.886818,0.0827 -0.270547,-0.30437 1.300181,-0.19537"
         style=""
         id="path3890" />
      <path
         d="m 39.198104,367.09845 0.358134,0.4029 -3.407136,3.02856 -0.358133,-0.4029 3.407135,-3.02856"
         style=""
         id="path3892" />
      <path
         d="m 40.088084,372.28896 -0.197071,0.17518 -1.646636,-1.85247 c -0.261789,0.26406 -0.399496,0.53542 -0.413119,0.81407 -0.01087,0.27882 0.102427,0.5518 0.339886,0.81894 0.137543,0.15474 0.289522,0.2875 0.45594,0.39828 0.16771,0.11224 0.353103,0.20615 0.556177,0.28174 l -0.381003,0.33867 c -0.189774,-0.09 -0.368192,-0.19667 -0.535255,-0.31994 -0.167065,-0.12327 -0.320018,-0.263 -0.458858,-0.4192 -0.347754,-0.39122 -0.509628,-0.80264 -0.485622,-1.23425 0.0253,-0.43015 0.232105,-0.8178 0.620409,-1.16296 0.401438,-0.35683 0.815692,-0.53168 1.242762,-0.52455 0.429822,0.007 0.80823,0.19489 1.135225,0.56275 0.293251,0.32991 0.418305,0.68521 0.375165,1.06589 -0.04039,0.38084 -0.243058,0.73345 -0.608,1.05785 m -0.239891,-0.508 c 0.217828,-0.19886 0.338585,-0.41726 0.362269,-0.6552 0.02497,-0.23649 -0.05077,-0.45399 -0.227239,-0.65253 -0.199832,-0.2248 -0.423584,-0.34864 -0.671258,-0.37151 -0.246381,-0.0214 -0.493976,0.0602 -0.742786,0.24476 l 1.279014,1.43448"
         style=""
         id="path3894" />
      <path
         d="m 41.43206,372.37218 2.495257,2.80717 -0.367866,0.32699 -2.495257,-2.80717 0.367866,-0.32699 m -0.893388,0.79412 2.495257,2.80717 -0.372245,0.33088 -2.495257,-2.80716 0.372245,-0.33089"
         style=""
         id="path3896" />
      <path
         d="m 46.615995,377.55587 -0.376624,0.33477 c -0.03844,-0.16966 -0.09359,-0.32577 -0.165443,-0.46834 -0.0691,-0.14241 -0.155551,-0.27201 -0.259354,-0.38879 -0.232272,-0.2613 -0.495843,-0.39025 -0.790717,-0.38685 -0.293419,0.002 -0.589754,0.13617 -0.889008,0.40218 -0.299257,0.266 -0.467862,0.54522 -0.505815,0.83767 -0.0365,0.29114 0.06139,0.56737 0.29366,0.82867 0.103805,0.11678 0.221642,0.21848 0.353511,0.30509 0.134622,0.0868 0.283925,0.1592 0.44791,0.21727 l -0.372245,0.33088 c -0.152468,-0.0657 -0.295689,-0.14744 -0.429663,-0.24524 -0.13268,-0.0963 -0.259356,-0.2124 -0.38003,-0.34816 -0.32829,-0.36933 -0.473052,-0.7659 -0.434286,-1.18972 0.03876,-0.42383 0.255218,-0.81091 0.649361,-1.16126 0.399978,-0.35554 0.81188,-0.52569 1.235707,-0.51044 0.425118,0.0167 0.807662,0.21629 1.147633,0.59875 0.110291,0.12409 0.204852,0.25693 0.283685,0.39853 0.08028,0.1403 0.14419,0.28863 0.191718,0.44499"
         style=""
         id="path3898" />
      <path
         d="m 47.107942,380.37591 c -0.289364,-0.32553 -0.527065,-0.51798 -0.713105,-0.57734 -0.186043,-0.0594 -0.36884,-0.009 -0.548392,0.15035 -0.14306,0.12717 -0.2154,0.27509 -0.217021,0.44378 0.0011,0.16885 0.07372,0.33429 0.217751,0.49633 0.198529,0.22334 0.436312,0.3321 0.713348,0.32626 0.279789,-0.006 0.551066,-0.1253 0.813829,-0.35887 l 0.08978,-0.0798 -0.356187,-0.40071 m 0.880736,0.65569 -1.399203,1.24373 -0.358133,-0.4029 0.372244,-0.33088 c -0.230647,0.0404 -0.442721,0.0238 -0.636222,-0.0499 -0.192044,-0.0749 -0.376301,-0.21167 -0.552771,-0.4102 -0.223186,-0.25108 -0.330885,-0.51335 -0.323099,-0.78682 0.01054,-0.2733 0.134056,-0.51506 0.370542,-0.72527 0.275897,-0.24524 0.565664,-0.33818 0.869301,-0.27882 0.30493,0.0608 0.620243,0.27444 0.94594,0.64085 l 0.502165,0.56493 0.03941,-0.035 c 0.185389,-0.16479 0.273949,-0.35327 0.26568,-0.56542 -0.0055,-0.212 -0.106243,-0.42821 -0.302175,-0.64863 -0.124571,-0.14014 -0.262683,-0.26171 -0.414335,-0.36471 -0.151658,-0.10299 -0.31556,-0.18596 -0.491704,-0.24889 l 0.372245,-0.33088 c 0.187984,0.0968 0.357481,0.20226 0.508491,0.31628 0.152463,0.11273 0.287087,0.23478 0.403874,0.36616 0.315309,0.35473 0.458854,0.70143 0.430636,1.0401 -0.02823,0.33867 -0.22919,0.6741 -0.602891,1.00628"
         style=""
         id="path3900" />
      <path
         d="m 48.043421,383.17019 -1.300667,1.15615 -0.36008,-0.40509 3.385238,-3.0091 0.36008,0.40509 -0.372244,0.33088 c 0.221235,-0.0451 0.423982,-0.0345 0.608243,0.0316 0.187011,0.0663 0.360319,0.18929 0.519926,0.36884 0.264703,0.2978 0.361211,0.6445 0.289524,1.0401 -0.0704,0.39706 -0.298286,0.76687 -0.683665,1.10943 -0.385387,0.34256 -0.779366,0.52552 -1.181939,0.54888 -0.40128,0.0248 -0.734273,-0.11167 -0.998978,-0.40947 -0.159605,-0.17955 -0.262114,-0.36543 -0.307528,-0.55763 -0.04266,-0.19205 -0.02863,-0.39528 0.04209,-0.60971 m 2.074596,0.60971 c 0.296333,-0.26342 0.47394,-0.53104 0.532821,-0.80289 0.06163,-0.27168 -0.0023,-0.51408 -0.191718,-0.72721 -0.189451,-0.21313 -0.42334,-0.30574 -0.701669,-0.27785 -0.275578,0.0281 -0.561533,0.1738 -0.857867,0.43721 -0.296337,0.26341 -0.475323,0.53095 -0.536957,0.80264 -0.05888,0.27184 0.0064,0.51433 0.195855,0.72746 0.189445,0.21312 0.421956,0.30566 0.697533,0.2776 0.278329,-0.0279 0.565663,-0.17356 0.862002,-0.43696"
         style=""
         id="path3902" />
      <path
         d="m 52.31183,383.77407 0.358133,0.4029 -2.452437,2.17994 -0.358133,-0.4029 2.452437,-2.17994 m 0.954698,-0.84862 0.358134,0.4029 -0.510195,0.4535 -0.358133,-0.4029 0.510194,-0.4535"
         style=""
         id="path3904" />
      <path
         d="m 54.467929,384.79735 -0.696317,0.61895 0.737677,0.82989 -0.313123,0.27833 -0.737678,-0.82989 -1.331323,1.1834 c -0.199991,0.17777 -0.304447,0.31896 -0.313367,0.42358 -0.0076,0.10608 0.06318,0.24305 0.212399,0.41093 l 0.367865,0.41385 -0.33721,0.29974 -0.367865,-0.41385 c -0.276387,-0.31093 -0.40947,-0.57677 -0.399251,-0.79753 0.01168,-0.22205 0.170794,-0.46932 0.477349,-0.74181 l 1.331323,-1.1834 -0.262761,-0.2956 0.313124,-0.27834 0.262761,0.29561 0.696317,-0.61895 0.36008,0.40509"
         style=""
         id="path3906" />
      <path
         d="m 54.753316,388.97696 c -0.289364,-0.32554 -0.527065,-0.51798 -0.713104,-0.57735 -0.186043,-0.0594 -0.368841,-0.009 -0.548392,0.15036 -0.14306,0.12716 -0.215401,0.27509 -0.217022,0.44377 0.0011,0.16885 0.07372,0.33429 0.217751,0.49633 0.19853,0.22335 0.436312,0.3321 0.713348,0.32626 0.27979,-0.006 0.551066,-0.1253 0.81383,-0.35886 l 0.08978,-0.0798 -0.356187,-0.40071 m 0.880736,0.65568 -1.399202,1.24374 -0.358134,-0.4029 0.372245,-0.33089 c -0.230648,0.0404 -0.442722,0.0238 -0.636223,-0.0499 -0.192044,-0.0749 -0.376301,-0.21167 -0.552771,-0.4102 -0.223186,-0.25109 -0.330885,-0.51336 -0.323099,-0.78683 0.01054,-0.2733 0.134056,-0.51506 0.370542,-0.72527 0.275898,-0.24524 0.565665,-0.33818 0.869301,-0.27881 0.304931,0.0608 0.620244,0.27444 0.94594,0.64084 l 0.502166,0.56494 0.03941,-0.035 c 0.185389,-0.16479 0.273949,-0.35327 0.26568,-0.56542 -0.0055,-0.21199 -0.106243,-0.4282 -0.302175,-0.64863 -0.124571,-0.14014 -0.262683,-0.26171 -0.414335,-0.3647 -0.151658,-0.103 -0.315559,-0.18596 -0.491704,-0.2489 l 0.372245,-0.33088 c 0.187985,0.0968 0.357482,0.20226 0.508491,0.31629 0.152463,0.11272 0.287088,0.23478 0.403874,0.36616 0.315309,0.35473 0.458854,0.70142 0.430636,1.04009 -0.02823,0.33867 -0.22919,0.6741 -0.602891,1.00628"
         style=""
         id="path3908" />
      <path
         d="m 58.38161,388.6799 0.358134,0.4029 -3.407136,3.02857 -0.358133,-0.4029 3.407135,-3.02857"
         style=""
         id="path3910" />
      <path
         d="m 59.27159,393.87041 -0.197071,0.17518 -1.646636,-1.85247 c -0.261789,0.26406 -0.399496,0.53542 -0.413119,0.81407 -0.01087,0.27882 0.102427,0.5518 0.339886,0.81894 0.137543,0.15474 0.289522,0.2875 0.45594,0.39828 0.16771,0.11224 0.353103,0.20615 0.556177,0.28174 l -0.381003,0.33867 c -0.189774,-0.09 -0.368192,-0.19667 -0.535254,-0.31994 -0.167066,-0.12327 -0.320019,-0.263 -0.458859,-0.4192 -0.347754,-0.39122 -0.509628,-0.80264 -0.485622,-1.23425 0.0253,-0.43014 0.232105,-0.8178 0.620409,-1.16296 0.401438,-0.35683 0.815692,-0.53168 1.242762,-0.52455 0.429822,0.007 0.80823,0.19489 1.135225,0.56275 0.293251,0.32991 0.418305,0.68521 0.375165,1.06589 -0.04039,0.38084 -0.243058,0.73346 -0.608,1.05785 m -0.239891,-0.508 c 0.217828,-0.19886 0.338585,-0.41726 0.362269,-0.6552 0.02497,-0.23649 -0.05077,-0.45399 -0.227239,-0.65252 -0.199832,-0.22481 -0.423584,-0.34865 -0.671258,-0.37152 -0.246381,-0.0214 -0.493976,0.0602 -0.742786,0.24476 l 1.279014,1.43448"
         style=""
         id="path3912" />
    </g>
    <g
       transform="translate(0,-1.5152288)"
       style="font-size:6px;font-style:normal;font-weight:normal;line-height:125%;letter-spacing:0px;word-spacing:0px;fill:#000000;fill-opacity:1;stroke:none;font-family:Bitstream Vera Sans"
       id="text10501">
      <path
         d="m 62.362606,357.47944 c -0.05303,-0.0457 -0.113623,-0.0829 -0.181769,-0.11158 -0.06587,-0.0302 -0.141038,-0.0533 -0.225501,-0.0691 -0.299471,-0.0562 -0.548189,-0.001 -0.746153,0.16413 -0.195688,0.16401 -0.327725,0.42839 -0.396112,0.79312 l -0.318546,1.69891 -0.532709,-0.0999 0.604697,-3.22505 0.532709,0.0999 -0.09394,0.50104 c 0.148053,-0.17493 0.320163,-0.29269 0.516332,-0.35328 0.196524,-0.0625 0.422445,-0.0698 0.677764,-0.022 0.03647,0.007 0.07624,0.0173 0.11932,0.0313 0.04343,0.0121 0.09112,0.028 0.143075,0.0477 l -0.09916,0.54477"
         style=""
         id="path3965" />
      <path
         d="m 64.070336,357.67145 c -0.284114,-0.0533 -0.529592,0.016 -0.736434,0.20769 -0.206487,0.18981 -0.345903,0.47764 -0.418249,0.86349 -0.07235,0.38586 -0.04781,0.70542 0.07361,0.9587 0.123698,0.25171 0.328563,0.40439 0.614596,0.45802 0.282189,0.0529 0.526707,-0.0165 0.733554,-0.20823 0.206842,-0.19172 0.346258,-0.47955 0.418249,-0.86349 0.07163,-0.38201 0.04577,-0.69984 -0.07757,-0.95348 -0.122982,-0.25555 -0.325567,-0.40978 -0.607756,-0.4627 m 0.08423,-0.4492 c 0.460718,0.0864 0.794501,0.30397 1.001349,0.65275 0.206841,0.34878 0.260591,0.78809 0.161252,1.31791 -0.09899,0.52791 -0.308231,0.91791 -0.627733,1.16998 -0.319148,0.25016 -0.709081,0.33205 -1.1698,0.24566 -0.462642,-0.0867 -0.797385,-0.30451 -1.004229,-0.65329 -0.204565,-0.35034 -0.257356,-0.78946 -0.158373,-1.31737 0.09934,-0.52983 0.307627,-0.92 0.624854,-1.17052 0.319144,-0.25016 0.710037,-0.33186 1.17268,-0.24512 m 0.05201,-1.45379 0.426167,0.0799 0.502474,1.21498 -0.400252,-0.075 -0.386034,-0.80266 -0.650589,0.60829 -0.400251,-0.075 0.908485,-0.95042"
         style=""
         id="path3967" />
      <path
         d="m 66.730818,356.48617 0.529829,0.0993 -0.840096,4.48051 -0.52983,-0.0993 0.840097,-4.48052"
         style=""
         id="path3969" />
      <path
         d="m 70.612041,360.04561 -0.04859,0.25916 -2.436064,-0.45677 c -0.04535,0.36906 0.01188,0.66793 0.171691,0.89661 0.162091,0.22712 0.418787,0.37362 0.770089,0.43949 0.203483,0.0381 0.404928,0.0501 0.604336,0.0358 0.201323,-0.0139 0.405408,-0.0532 0.612256,-0.1177 l -0.09394,0.50103 c -0.205168,0.045 -0.411533,0.0699 -0.619094,0.0747 -0.207567,0.005 -0.414052,-0.0121 -0.619455,-0.0506 -0.514473,-0.0965 -0.894328,-0.32268 -1.139565,-0.67866 -0.243319,-0.35562 -0.317106,-0.78875 -0.221362,-1.29938 0.09898,-0.52791 0.319504,-0.91976 0.661567,-1.17556 0.344339,-0.25735 0.758388,-0.34068 1.242148,-0.24998 0.433843,0.0814 0.750228,0.28574 0.949158,0.61316 0.201202,0.32586 0.256812,0.72875 0.166831,1.20867 m -0.500674,-0.25484 c 0.05051,-0.29058 0.01229,-0.5372 -0.114641,-0.73985 -0.125021,-0.20228 -0.318068,-0.3279 -0.579141,-0.37686 -0.295632,-0.0554 -0.548368,-0.0164 -0.75821,0.11716 -0.207926,0.1339 -0.353761,0.34999 -0.437506,0.64825 l 1.889498,0.3513"
         style=""
         id="path3971" />
      <path
         d="m 71.725692,359.28864 3.69153,0.69217 -0.0907,0.48375 -3.69153,-0.69216 0.0907,-0.48376 m -0.220282,1.17484 3.691529,0.69216 -0.09178,0.48952 -3.69153,-0.69216 0.09179,-0.48952"
         style=""
         id="path3973" />
      <path
         d="m 78.568478,358.70572 -0.08261,0.44057 -0.506793,-0.095 c -0.19005,-0.0356 -0.329706,-0.0221 -0.418969,0.0407 -0.08735,0.0631 -0.149736,0.19449 -0.187168,0.39413 l -0.05345,0.28507 0.872491,0.16359 -0.07721,0.41177 -0.872492,-0.16359 -0.527489,2.81328 -0.532709,-0.0999 0.527489,-2.81328 -0.506793,-0.095 0.07721,-0.41177 0.506793,0.095 0.04211,-0.2246 c 0.06731,-0.35898 0.199764,-0.6044 0.397372,-0.73626 0.197965,-0.13377 0.478356,-0.16664 0.841177,-0.0986 l 0.501034,0.0939"
         style=""
         id="path3975" />
      <path
         d="m 80.549584,360.88947 c -0.05303,-0.0457 -0.113624,-0.0829 -0.181769,-0.11158 -0.06587,-0.0302 -0.141039,-0.0533 -0.225502,-0.0691 -0.299471,-0.0562 -0.548188,-0.001 -0.746152,0.16413 -0.195689,0.16402 -0.327726,0.42839 -0.396113,0.79313 l -0.318545,1.69891 -0.532709,-0.0999 0.604696,-3.22505 0.532709,0.0999 -0.09394,0.50103 c 0.148053,-0.17492 0.320164,-0.29268 0.516332,-0.35328 0.196524,-0.0625 0.422446,-0.0698 0.677764,-0.022 0.03647,0.007 0.07625,0.0173 0.11932,0.0313 0.04343,0.0121 0.09112,0.028 0.143076,0.0477 l -0.09916,0.54477"
         style=""
         id="path3977" />
      <path
         d="m 82.257309,361.08152 c -0.284113,-0.0533 -0.529591,0.016 -0.736434,0.20768 -0.206486,0.18981 -0.345902,0.47764 -0.418248,0.86349 -0.07235,0.38586 -0.04781,0.70542 0.07361,0.9587 0.123698,0.25172 0.328562,0.40439 0.614595,0.45802 0.28219,0.0529 0.526708,-0.0165 0.733555,-0.20822 0.206842,-0.19173 0.346258,-0.47956 0.418248,-0.86349 0.07162,-0.38202 0.04577,-0.69984 -0.07757,-0.95348 -0.122982,-0.25556 -0.325567,-0.40979 -0.607757,-0.4627 m 0.08423,-0.44921 c 0.460719,0.0864 0.794501,0.30397 1.001349,0.65275 0.206841,0.34879 0.260592,0.78809 0.161253,1.31792 -0.09899,0.52791 -0.308231,0.9179 -0.627733,1.16998 -0.319148,0.25015 -0.709081,0.33204 -1.169801,0.24566 -0.462642,-0.0867 -0.797384,-0.30451 -1.004228,-0.65329 -0.204566,-0.35034 -0.257357,-0.78947 -0.158373,-1.31738 0.09934,-0.52982 0.307627,-0.92 0.624853,-1.17052 0.319144,-0.25015 0.710037,-0.33186 1.17268,-0.24512"
         style=""
         id="path3979" />
      <path
         d="m 87.123502,362.93286 -0.364977,1.94655 -0.52983,-0.0993 0.361738,-1.92927 c 0.05723,-0.30523 0.04055,-0.54483 -0.05003,-0.7188 -0.09059,-0.17397 -0.254899,-0.28327 -0.492936,-0.32791 -0.286033,-0.0536 -0.528692,-0.005 -0.727976,0.14668 -0.199287,0.15142 -0.328445,0.38454 -0.387473,0.69936 l -0.341762,1.82273 -0.532709,-0.0999 0.604697,-3.22505 0.532709,0.0999 -0.09394,0.50103 c 0.16305,-0.17012 0.339,-0.28716 0.52785,-0.35112 0.190765,-0.0636 0.398449,-0.0743 0.623053,-0.0322 0.370494,0.0695 0.629169,0.2372 0.776028,0.50319 0.147211,0.26408 0.179066,0.6188 0.09556,1.06416"
         style=""
         id="path3981" />
      <path
         d="m 89.121515,361.03616 -0.17169,0.91568 1.091333,0.20463 -0.07721,0.41177 -1.091333,-0.20463 -0.328264,1.75074 c -0.04931,0.263 -0.04547,0.43859 0.01152,0.52677 0.05891,0.0885 0.198744,0.15352 0.419508,0.19491 l 0.544227,0.10204 -0.08314,0.44345 -0.544228,-0.10205 c -0.408891,-0.0767 -0.676865,-0.2054 -0.803922,-0.38621 -0.126699,-0.18273 -0.152255,-0.47566 -0.07667,-0.87879 l 0.328264,-1.75074 -0.388734,-0.0729 0.07721,-0.41177 0.388734,0.0729 0.17169,-0.91568 0.532709,0.0999"
         style=""
         id="path3983" />
      <path
         d="m 90.740879,362.28766 0.529829,0.0993 -0.604697,3.22505 -0.529829,-0.0993 0.604697,-3.22505 m 0.235399,-1.25546 0.52983,0.0993 -0.125799,0.67092 -0.529829,-0.0993 0.125798,-0.67092"
         style=""
         id="path3985" />
      <path
         d="m 94.857502,364.59163 -0.04859,0.25916 -2.436064,-0.45676 c -0.04535,0.36905 0.01188,0.66792 0.171691,0.8966 0.16209,0.22712 0.418786,0.37362 0.770088,0.43949 0.203483,0.0381 0.404928,0.0501 0.604337,0.0358 0.201323,-0.0139 0.405408,-0.0532 0.612255,-0.1177 l -0.09394,0.50104 c -0.205168,0.045 -0.411532,0.0699 -0.619094,0.0747 -0.207567,0.005 -0.414051,-0.0121 -0.619454,-0.0506 -0.514474,-0.0965 -0.894328,-0.32268 -1.139566,-0.67866 -0.243319,-0.35562 -0.317106,-0.78875 -0.221362,-1.29938 0.09898,-0.52791 0.319505,-0.91976 0.661567,-1.17556 0.34434,-0.25735 0.758389,-0.34068 1.242148,-0.24998 0.433843,0.0814 0.750229,0.28574 0.949158,0.61316 0.201202,0.32586 0.256813,0.72875 0.166832,1.20867 m -0.500675,-0.25484 c 0.05051,-0.29058 0.0123,-0.5372 -0.11464,-0.73985 -0.125022,-0.20228 -0.318069,-0.3279 -0.579141,-0.37685 -0.295632,-0.0554 -0.548369,-0.0164 -0.758211,0.11716 -0.207926,0.13389 -0.353761,0.34998 -0.437505,0.64824 l 1.889497,0.3513 m -0.799423,-3.06505 0.610095,1.22919 -0.440564,-0.0826 -0.736795,-1.25294 0.567264,0.10636"
         style=""
         id="path3987" />
      <path
         d="m 97.780564,364.12031 c -0.05303,-0.0457 -0.113624,-0.0829 -0.181769,-0.11159 -0.06587,-0.0302 -0.141039,-0.0533 -0.225502,-0.0691 -0.299471,-0.0562 -0.548188,-0.001 -0.746153,0.16413 -0.195688,0.16401 -0.327725,0.42839 -0.396112,0.79312 l -0.318546,1.69891 -0.532709,-0.0999 0.604697,-3.22505 0.532709,0.0999 -0.09394,0.50104 c 0.148053,-0.17493 0.320164,-0.29269 0.516332,-0.35328 0.196524,-0.0625 0.422445,-0.0698 0.677764,-0.022 0.03647,0.007 0.07625,0.0173 0.11932,0.0313 0.04343,0.0121 0.09112,0.028 0.143076,0.0477 l -0.09916,0.54477"
         style=""
         id="path3989" />
      <path
         d="m 100.78929,365.70384 -0.0486,0.25916 -2.436069,-0.45676 c -0.04535,0.36906 0.01188,0.66792 0.171691,0.89661 0.162091,0.22712 0.418787,0.37361 0.770089,0.43948 0.203483,0.0381 0.404928,0.0501 0.604337,0.0358 0.201322,-0.0139 0.405412,-0.0531 0.612252,-0.1177 l -0.0939,0.50104 c -0.20517,0.045 -0.411534,0.0699 -0.619095,0.0747 -0.207567,0.005 -0.414052,-0.0121 -0.619455,-0.0506 -0.514473,-0.0965 -0.894328,-0.32268 -1.139565,-0.67866 -0.243319,-0.35562 -0.317106,-0.78874 -0.221362,-1.29938 0.09898,-0.52791 0.319504,-0.91976 0.661567,-1.17556 0.344339,-0.25735 0.758388,-0.34068 1.242148,-0.24997 0.433842,0.0813 0.750232,0.28573 0.949162,0.61315 0.2012,0.32587 0.25681,0.72876 0.16683,1.20867 m -0.50068,-0.25483 c 0.0505,-0.29059 0.0123,-0.53721 -0.11464,-0.73986 -0.12502,-0.20228 -0.318066,-0.3279 -0.579139,-0.37685 -0.295631,-0.0554 -0.548368,-0.0164 -0.75821,0.11716 -0.207926,0.1339 -0.353761,0.34998 -0.437506,0.64825 l 1.889495,0.3513"
         style=""
         id="path3991" />
      <path
         d="m 103.81385,364.73883 0.52983,0.0994 -0.6047,3.22505 -0.52983,-0.0993 0.6047,-3.22505 m 0.2354,-1.25546 0.52983,0.0993 -0.1258,0.67093 -0.52983,-0.0994 0.1258,-0.67092"
         style=""
         id="path3993" />
      <path
         d="m 107.89052,366.82666 -0.36498,1.94655 -0.52983,-0.0994 0.36174,-1.92927 c 0.0572,-0.30522 0.0405,-0.54482 -0.05,-0.71879 -0.0906,-0.17397 -0.2549,-0.28327 -0.49294,-0.32791 -0.28603,-0.0536 -0.52869,-0.005 -0.72798,0.14668 -0.19928,0.15141 -0.32844,0.38453 -0.38747,0.69936 l -0.34176,1.82273 -0.53271,-0.0999 0.6047,-3.22505 0.53271,0.0999 -0.0939,0.50103 c 0.16305,-0.17013 0.339,-0.28717 0.52785,-0.35112 0.19077,-0.0636 0.39845,-0.0743 0.62305,-0.0322 0.3705,0.0695 0.62917,0.2372 0.77603,0.50319 0.14721,0.26408 0.17907,0.6188 0.0956,1.06416"
         style=""
         id="path3995" />
      <path
         d="m 109.88854,364.92999 -0.17169,0.91568 1.09133,0.20463 -0.0772,0.41177 -1.09133,-0.20463 -0.32827,1.75074 c -0.0493,0.263 -0.0455,0.43859 0.0115,0.52677 0.0589,0.0885 0.19875,0.15352 0.41951,0.19491 l 0.54423,0.10204 -0.0832,0.44345 -0.54422,-0.10205 c -0.4089,-0.0767 -0.67687,-0.2054 -0.80393,-0.38621 -0.1267,-0.18273 -0.15225,-0.47566 -0.0767,-0.87879 l 0.32826,-1.75074 -0.38873,-0.0729 0.0772,-0.41177 0.38874,0.0729 0.17169,-0.91568 0.53271,0.0999"
         style=""
         id="path3997" />
      <path
         d="m 113.98896,368.17879 -0.0486,0.25916 -2.43606,-0.45677 c -0.0453,0.36906 0.0119,0.66793 0.17169,0.89661 0.16209,0.22712 0.41879,0.37362 0.77009,0.43949 0.20348,0.0382 0.40493,0.0501 0.60434,0.0358 0.20132,-0.0139 0.4054,-0.0532 0.61225,-0.1177 l -0.0939,0.50103 c -0.20517,0.045 -0.41153,0.0699 -0.6191,0.0747 -0.20756,0.005 -0.41405,-0.0121 -0.61945,-0.0506 -0.51447,-0.0965 -0.89433,-0.32269 -1.13957,-0.67866 -0.24332,-0.35562 -0.3171,-0.78875 -0.22136,-1.29938 0.099,-0.52791 0.31951,-0.91976 0.66157,-1.17556 0.34434,-0.25736 0.75839,-0.34068 1.24215,-0.24998 0.43384,0.0813 0.75023,0.28573 0.94915,0.61316 0.20121,0.32586 0.25682,0.72875 0.16684,1.20867 m -0.50068,-0.25484 c 0.0505,-0.29059 0.0123,-0.5372 -0.11464,-0.73985 -0.12502,-0.20228 -0.31807,-0.3279 -0.57914,-0.37686 -0.29563,-0.0554 -0.54837,-0.0164 -0.75821,0.11716 -0.20793,0.1339 -0.35376,0.34999 -0.43751,0.64825 l 1.8895,0.3513 m 0.0184,-2.91172 0.57302,0.10744 -1.14172,0.90669 -0.44057,-0.0826 1.00927,-0.93152"
         style=""
         id="path3999" />
      <path
         d="m 115.83183,366.04434 -0.17169,0.91568 1.09134,0.20463 -0.0772,0.41177 -1.09133,-0.20463 -0.32827,1.75074 c -0.0493,0.263 -0.0455,0.43859 0.0115,0.52677 0.0589,0.0885 0.19875,0.15352 0.41951,0.19491 l 0.54423,0.10204 -0.0831,0.44345 -0.54423,-0.10205 c -0.40889,-0.0767 -0.67686,-0.2054 -0.80392,-0.38621 -0.1267,-0.18273 -0.15225,-0.47566 -0.0767,-0.87879 l 0.32827,-1.75074 -0.38874,-0.0729 0.0772,-0.41177 0.38874,0.0729 0.17169,-0.91569 0.5327,0.0999"
         style=""
         id="path4001" />
      <path
         d="m 117.4512,367.29584 0.52983,0.0993 -0.6047,3.22505 -0.52983,-0.0993 0.6047,-3.22505 m 0.2354,-1.25547 0.52983,0.0994 -0.1258,0.67092 -0.52983,-0.0993 0.1258,-0.67093"
         style=""
         id="path4003" />
      <path
         d="m 121.56782,369.59981 -0.0486,0.25916 -2.43606,-0.45677 c -0.0454,0.36906 0.0119,0.66793 0.17169,0.89661 0.16209,0.22712 0.41878,0.37362 0.77008,0.43949 0.20349,0.0382 0.40493,0.0501 0.60434,0.0358 0.20132,-0.0139 0.40541,-0.0532 0.61226,-0.1177 l -0.094,0.50103 c -0.20517,0.045 -0.41153,0.0699 -0.61909,0.0747 -0.20757,0.005 -0.41405,-0.0121 -0.61946,-0.0506 -0.51447,-0.0965 -0.89432,-0.32269 -1.13956,-0.67866 -0.24332,-0.35562 -0.31711,-0.78875 -0.22136,-1.29938 0.099,-0.52791 0.3195,-0.91976 0.66156,-1.17556 0.34434,-0.25735 0.75839,-0.34068 1.24215,-0.24998 0.43384,0.0813 0.75023,0.28573 0.94916,0.61316 0.2012,0.32586 0.25681,0.72875 0.16683,1.20867 m -0.50067,-0.25484 c 0.0505,-0.29059 0.0123,-0.5372 -0.11464,-0.73985 -0.12503,-0.20228 -0.31807,-0.3279 -0.57914,-0.37686 -0.29564,-0.0554 -0.54837,-0.0164 -0.75822,0.11716 -0.20792,0.1339 -0.35376,0.34999 -0.4375,0.64825 l 1.8895,0.3513"
         style=""
         id="path4005" />
      <path
         d="m 122.29418,370.22486 0.36606,-1.95231 0.52983,0.0993 -0.36228,1.93215 c -0.0572,0.30523 -0.0407,0.54579 0.0495,0.72168 0.0906,0.17397 0.25489,0.28327 0.49293,0.3279 0.28603,0.0536 0.52869,0.005 0.72798,-0.14667 0.2012,-0.15105 0.33132,-0.38399 0.39035,-0.69882 l 0.34284,-1.82849 0.52983,0.0993 -0.60469,3.22505 -0.52983,-0.0993 0.0929,-0.49527 c -0.16533,0.17169 -0.34242,0.28951 -0.53127,0.35345 -0.18657,0.0624 -0.39215,0.0725 -0.61675,0.0304 -0.3705,-0.0695 -0.63014,-0.23738 -0.77891,-0.50373 -0.14877,-0.26636 -0.18159,-0.62126 -0.0984,-1.0647"
         style=""
         id="path4007" />
      <path
         d="m 128.23424,369.83036 c -0.053,-0.0457 -0.11363,-0.0829 -0.18177,-0.11158 -0.0659,-0.0302 -0.14104,-0.0533 -0.2255,-0.0691 -0.29947,-0.0562 -0.54819,-0.001 -0.74616,0.16413 -0.19568,0.16402 -0.32772,0.42839 -0.39611,0.79313 l -0.31854,1.69891 -0.53271,-0.0999 0.60469,-3.22505 0.53271,0.0999 -0.0939,0.50103 c 0.14805,-0.17493 0.32016,-0.29269 0.51633,-0.35328 0.19653,-0.0625 0.42245,-0.0698 0.67777,-0.022 0.0365,0.007 0.0762,0.0173 0.11932,0.0313 0.0434,0.0121 0.0911,0.028 0.14307,0.0477 l -0.0992,0.54477"
         style=""
         id="path4009" />
      <path
         d="m 131.24297,371.4139 -0.0486,0.25915 -2.43607,-0.45676 c -0.0453,0.36906 0.0119,0.66793 0.17169,0.89661 0.16209,0.22712 0.41879,0.37361 0.77009,0.43948 0.20349,0.0382 0.40493,0.0501 0.60434,0.0358 0.20132,-0.0139 0.40541,-0.0531 0.61225,-0.1177 l -0.0939,0.50103 c -0.20517,0.045 -0.41153,0.0699 -0.61909,0.0747 -0.20757,0.005 -0.41405,-0.0121 -0.61946,-0.0506 -0.51447,-0.0965 -0.89433,-0.32269 -1.13956,-0.67867 -0.24332,-0.35562 -0.31711,-0.78874 -0.22137,-1.29938 0.099,-0.5279 0.31951,-0.91976 0.66157,-1.17555 0.34434,-0.25736 0.75839,-0.34068 1.24215,-0.24998 0.43384,0.0814 0.75023,0.28573 0.94916,0.61315 0.2012,0.32587 0.25681,0.72876 0.16683,1.20868 m -0.50068,-0.25484 c 0.0505,-0.29059 0.0123,-0.53721 -0.11464,-0.73985 -0.12502,-0.20229 -0.31806,-0.3279 -0.57914,-0.37686 -0.29563,-0.0554 -0.54837,-0.0164 -0.75821,0.11716 -0.20792,0.1339 -0.35376,0.34998 -0.4375,0.64825 l 1.88949,0.3513"
         style=""
         id="path4011" />
    </g>
    <g
       transform="translate(0,-1.5152288)"
       style="font-size:6px;font-style:normal;font-weight:normal;line-height:125%;letter-spacing:0px;word-spacing:0px;fill:#000000;fill-opacity:1;stroke:none;font-family:Bitstream Vera Sans"
       id="text10505">
      <path
         d="m 60.372898,366.17544 c -0.04237,-0.0557 -0.0939,-0.10471 -0.154598,-0.14693 -0.05815,-0.0433 -0.126881,-0.0814 -0.206205,-0.11449 -0.281252,-0.11718 -0.53591,-0.11538 -0.763972,0.005 -0.225513,0.11974 -0.409632,0.35089 -0.552359,0.69344 l -0.664814,1.59555 -0.5003,-0.20846 1.262019,-3.02885 0.500301,0.20846 -0.196064,0.47056 c 0.181188,-0.14033 0.374021,-0.21973 0.578501,-0.23821 0.205225,-0.0203 0.427731,0.0195 0.667518,0.11944 0.03425,0.0143 0.07099,0.0328 0.110201,0.0554 0.03996,0.0209 0.08331,0.0464 0.130033,0.0764 l -0.210261,0.51224"
         style=""
         id="path3915" />
      <path
         d="m 62.00338,366.71832 c -0.26683,-0.11118 -0.521337,-0.0945 -0.763522,0.05 -0.241438,0.14273 -0.437652,0.39528 -0.588642,0.75766 -0.150993,0.36238 -0.193436,0.68007 -0.127329,0.95305 0.06866,0.27194 0.237303,0.46387 0.505935,0.5758 0.265022,0.11043 0.518627,0.0934 0.760817,-0.0512 0.242185,-0.14453 0.438399,-0.39708 0.588642,-0.75766 0.149486,-0.35877 0.190276,-0.67503 0.122371,-0.94877 -0.06716,-0.27554 -0.233251,-0.46852 -0.498272,-0.57895 m 0.175781,-0.42187 c 0.432689,0.18029 0.713938,0.46251 0.84375,0.84668 0.129804,0.38416 0.09104,0.82504 -0.116286,1.32264 -0.206584,0.49579 -0.492341,0.83375 -0.857272,1.01389 -0.364185,0.17834 -0.762622,0.17736 -1.195312,-0.003 -0.434497,-0.18104 -0.716648,-0.46364 -0.846455,-0.8478 -0.127254,-0.38522 -0.08759,-0.82572 0.118991,-1.32152 0.20733,-0.49759 0.492186,-0.83593 0.854567,-1.01502 0.364181,-0.17833 0.763519,-0.17698 1.198017,0.004 m 0.35314,-1.41121 0.40024,0.16676 0.238882,1.2929 -0.375901,-0.15663 -0.210712,-0.86538 -0.762846,0.45973 -0.375901,-0.15662 1.086238,-0.74076"
         style=""
         id="path3917" />
      <path
         d="m 64.852164,366.11211 0.497596,0.20733 -1.753305,4.20793 -0.497597,-0.20733 1.753306,-4.20793"
         style=""
         id="path3920" />
      <path
         d="m 67.908507,370.40071 -0.101413,0.24339 -2.28786,-0.95327 c -0.121095,0.35156 -0.127255,0.6558 -0.01848,0.91271 0.111327,0.25586 0.331955,0.45252 0.661884,0.58999 0.191104,0.0796 0.385665,0.13319 0.583684,0.16068 0.199817,0.0282 0.407599,0.0323 0.623347,0.0122 l -0.196063,0.47056 c -0.210039,0.001 -0.41707,-0.0172 -0.621094,-0.0557 -0.204029,-0.0385 -0.402496,-0.0979 -0.595403,-0.17826 -0.483174,-0.20132 -0.807693,-0.50158 -0.973557,-0.90077 -0.164064,-0.39843 -0.146185,-0.83743 0.05363,-1.317 0.20658,-0.49579 0.503755,-0.83323 0.891527,-1.01232 0.390322,-0.18014 0.812648,-0.17556 1.266977,0.0137 0.407448,0.16978 0.674425,0.43548 0.800932,0.79711 0.129052,0.36057 0.09968,0.76622 -0.08812,1.21694 m -0.436749,-0.35336 c 0.109822,-0.27374 0.123719,-0.52291 0.04169,-0.74752 -0.08023,-0.22386 -0.242941,-0.38687 -0.488131,-0.48904 -0.277646,-0.11568 -0.53298,-0.13003 -0.766,-0.043 -0.231222,0.0877 -0.418797,0.26878 -0.562726,0.54312 l 1.775166,0.73648"
         style=""
         id="path3922" />
      <path
         d="m 69.155197,369.89185 3.466947,1.44456 -0.189303,0.45432 -3.466947,-1.44456 0.189303,-0.45432 m -0.459735,1.10336 3.466947,1.44456 -0.191557,0.45974 -3.466947,-1.44456 0.191557,-0.45974"
         style=""
         id="path3924" />
      <path
         d="m 75.96965,370.74438 -0.172401,0.41377 -0.475961,-0.19832 c -0.178489,-0.0744 -0.317912,-0.0901 -0.418269,-0.0473 -0.09856,0.0436 -0.186902,0.15911 -0.265024,0.34661 l -0.111554,0.26773 0.819411,0.34142 -0.161133,0.38672 -0.819411,-0.34142 -1.100886,2.64212 -0.500301,-0.20846 1.100887,-2.64212 -0.475962,-0.19832 0.161133,-0.38672 0.475962,0.19832 0.08789,-0.21094 c 0.140473,-0.33714 0.321062,-0.54965 0.541767,-0.63754 0.221452,-0.0897 0.502551,-0.0636 0.843299,0.0784 l 0.470553,0.19606"
         style=""
         id="path3926" />
      <path
         d="m 77.453422,373.29232 c -0.04237,-0.0557 -0.0939,-0.10471 -0.154597,-0.14693 -0.05815,-0.0433 -0.126881,-0.0814 -0.206205,-0.11449 -0.281253,-0.11718 -0.53591,-0.11538 -0.763973,0.005 -0.225512,0.11975 -0.409632,0.35089 -0.552358,0.69344 l -0.664814,1.59555 -0.500301,-0.20846 1.26202,-3.02884 0.5003,0.20845 -0.196064,0.47056 c 0.181188,-0.14032 0.374021,-0.21973 0.578501,-0.23821 0.205226,-0.0203 0.427731,0.0195 0.667518,0.11944 0.03425,0.0143 0.07098,0.0328 0.110201,0.0554 0.03996,0.0209 0.08331,0.0463 0.130033,0.0764 l -0.210261,0.51224"
         style=""
         id="path3928" />
      <path
         d="m 79.083912,373.8352 c -0.26683,-0.11117 -0.521337,-0.0945 -0.763522,0.05 -0.241438,0.14273 -0.437652,0.39529 -0.588642,0.75767 -0.150993,0.36238 -0.193436,0.68006 -0.127329,0.95304 0.06866,0.27194 0.237304,0.46387 0.505935,0.5758 0.265022,0.11043 0.518627,0.0934 0.760817,-0.0512 0.242185,-0.14453 0.438399,-0.39708 0.588642,-0.75766 0.149486,-0.35877 0.190276,-0.67503 0.122371,-0.94877 -0.06716,-0.27554 -0.233251,-0.46852 -0.498272,-0.57895 m 0.175781,-0.42187 c 0.432689,0.18029 0.713938,0.46251 0.84375,0.84668 0.129804,0.38416 0.09104,0.82504 -0.116286,1.32264 -0.206584,0.49579 -0.492341,0.83376 -0.857272,1.0139 -0.364185,0.17833 -0.762622,0.17735 -1.195312,-0.003 -0.434497,-0.18104 -0.716648,-0.46365 -0.846455,-0.84781 -0.127254,-0.38522 -0.08759,-0.82572 0.118991,-1.32151 0.20733,-0.4976 0.492186,-0.83594 0.854567,-1.01503 0.364181,-0.17833 0.763519,-0.17698 1.198017,0.004"
         style=""
         id="path3930" />
      <path
         d="m 83.458838,376.65785 -0.761719,1.82813 -0.497596,-0.20733 0.754958,-1.8119 c 0.119437,-0.28666 0.152941,-0.52449 0.100511,-0.71349 -0.05244,-0.189 -0.190433,-0.33008 -0.413988,-0.42323 -0.268632,-0.11193 -0.516153,-0.11456 -0.742563,-0.008 -0.226414,0.10667 -0.401219,0.30785 -0.524414,0.60352 l -0.713266,1.71184 -0.500301,-0.20846 1.26202,-3.02885 0.5003,0.20846 -0.196064,0.47055 c 0.19486,-0.13251 0.391299,-0.21041 0.589318,-0.2337 0.199817,-0.0225 0.405195,0.0102 0.616136,0.098 0.347953,0.14498 0.566102,0.36283 0.654447,0.65354 0.08909,0.28891 0.0465,0.64251 -0.127779,1.06077"
         style=""
         id="path3932" />
      <path
         d="m 85.807546,375.21802 -0.358324,0.85998 1.02494,0.42706 -0.161133,0.38672 -1.02494,-0.42706 -0.685096,1.64423 c -0.102916,0.247 -0.135668,0.41955 -0.09826,0.51765 0.03921,0.0989 0.162484,0.19148 0.369817,0.27787 l 0.511118,0.21297 -0.173528,0.41647 -0.511118,-0.21297 c -0.384015,-0.16001 -0.619367,-0.34165 -0.706055,-0.54492 -0.08594,-0.20508 -0.05003,-0.49692 0.107723,-0.87553 l 0.685096,-1.64423 -0.365084,-0.15212 0.161133,-0.38672 0.365084,0.15212 0.358323,-0.85997 0.500301,0.20845"
         style=""
         id="path3934" />
      <path
         d="m 87.131313,376.77887 0.497596,0.20733 -1.262019,3.02885 -0.497596,-0.20734 1.262019,-3.02884 m 0.491286,-1.17909 0.497596,0.20733 -0.262545,0.63011 -0.497596,-0.20733 0.262545,-0.63011"
         style=""
         id="path3936" />
      <path
         d="m 90.678938,379.88838 -0.101412,0.24339 -2.287861,-0.95327 c -0.121095,0.35156 -0.127255,0.6558 -0.01848,0.91271 0.111326,0.25586 0.331954,0.45252 0.661884,0.58999 0.191103,0.0796 0.385664,0.13319 0.583684,0.16068 0.199816,0.0283 0.407599,0.0323 0.623347,0.0122 l -0.196064,0.47056 c -0.210039,0.001 -0.41707,-0.0172 -0.621094,-0.0557 -0.204028,-0.0385 -0.402496,-0.0979 -0.595402,-0.17826 -0.483175,-0.20132 -0.807694,-0.50158 -0.973558,-0.90076 -0.164063,-0.39844 -0.146184,-0.83744 0.05364,-1.31701 0.206579,-0.49579 0.503755,-0.83323 0.891526,-1.01232 0.390323,-0.18014 0.812648,-0.17555 1.266978,0.0138 0.407448,0.16977 0.674425,0.43547 0.800931,0.7971 0.129053,0.36057 0.09968,0.76622 -0.08812,1.21694 m -0.436749,-0.35336 c 0.109823,-0.27374 0.12372,-0.52291 0.04169,-0.74752 -0.08023,-0.22386 -0.242942,-0.38687 -0.488131,-0.48904 -0.277647,-0.11568 -0.53298,-0.13003 -0.766001,-0.043 -0.231221,0.0877 -0.418796,0.26878 -0.562725,0.54312 l 1.775165,0.73648 m -0.144681,-3.16429 0.341196,1.32918 -0.413762,-0.1724 -0.460187,-1.37876 0.532753,0.22198"
         style=""
         id="path3938" />
      <path
         d="m 93.636115,380.03512 c -0.04237,-0.0557 -0.0939,-0.10471 -0.154597,-0.14693 -0.05815,-0.0433 -0.126881,-0.0814 -0.206205,-0.11449 -0.281253,-0.11718 -0.53591,-0.11538 -0.763972,0.005 -0.225513,0.11974 -0.409632,0.35089 -0.552359,0.69344 l -0.664814,1.59555 -0.5003,-0.20846 1.262019,-3.02885 0.500301,0.20846 -0.196064,0.47056 c 0.181188,-0.14033 0.374021,-0.21973 0.5785,-0.23821 0.205226,-0.0203 0.427732,0.0195 0.667518,0.11944 0.03425,0.0143 0.07099,0.0328 0.110202,0.0554 0.03996,0.0209 0.0833,0.0464 0.130033,0.0764 l -0.210262,0.51224"
         style=""
         id="path3940" />
      <path
         d="m 96.249853,382.20961 -0.101412,0.24339 -2.287861,-0.95327 c -0.121095,0.35156 -0.127254,0.6558 -0.01848,0.91271 0.111327,0.25585 0.331954,0.45252 0.661884,0.58999 0.191103,0.0796 0.385665,0.13319 0.583684,0.16068 0.199817,0.0282 0.407599,0.0323 0.623347,0.0122 l -0.196064,0.47055 c -0.210038,0.001 -0.41707,-0.0172 -0.621093,-0.0557 -0.204029,-0.0385 -0.402496,-0.0979 -0.595403,-0.17826 -0.483174,-0.20132 -0.807693,-0.50158 -0.973558,-0.90077 -0.164063,-0.39843 -0.146184,-0.83744 0.05364,-1.317 0.20658,-0.4958 0.503755,-0.83323 0.891527,-1.01232 0.390322,-0.18014 0.812647,-0.17556 1.266977,0.0137 0.407448,0.16978 0.674425,0.43548 0.800931,0.7971 0.129053,0.36058 0.09968,0.76623 -0.08812,1.21695 m -0.436749,-0.35336 c 0.109823,-0.27374 0.12372,-0.52291 0.04169,-0.74753 -0.08023,-0.22385 -0.242942,-0.38686 -0.488131,-0.48903 -0.277647,-0.11568 -0.53298,-0.13003 -0.766,-0.043 -0.231222,0.0877 -0.418797,0.26878 -0.562726,0.54312 l 1.775165,0.73648"
         style=""
         id="path3942" />
      <path
         d="m 101.42052,384.36406 -0.10141,0.24339 -2.28786,-0.95328 c -0.121095,0.35157 -0.127255,0.6558 -0.01848,0.91272 0.111327,0.25585 0.331955,0.45252 0.661884,0.58999 0.191104,0.0796 0.385666,0.13319 0.583686,0.16068 0.19982,0.0282 0.4076,0.0323 0.62335,0.0122 l -0.19607,0.47055 c -0.21004,0.001 -0.41707,-0.0172 -0.62109,-0.0557 -0.20403,-0.0385 -0.402498,-0.0979 -0.595404,-0.17826 -0.483175,-0.20132 -0.807694,-0.50158 -0.973558,-0.90077 -0.164063,-0.39843 -0.146185,-0.83744 0.05364,-1.317 0.206579,-0.4958 0.503754,-0.83324 0.891526,-1.01232 0.390322,-0.18014 0.81265,-0.17556 1.26698,0.0137 0.40745,0.16978 0.67442,0.43548 0.80093,0.7971 0.12905,0.36058 0.0997,0.76623 -0.0881,1.21695 m -0.43675,-0.35336 c 0.10983,-0.27374 0.12372,-0.52292 0.0417,-0.74753 -0.0802,-0.22385 -0.24295,-0.38686 -0.48814,-0.48903 -0.27764,-0.11568 -0.53298,-0.13003 -0.765996,-0.043 -0.231222,0.0877 -0.418797,0.26878 -0.562725,0.54312 l 1.775161,0.73648"
         style=""
         id="path3944" />
      <path
         d="m 105.23678,384.32282 -1.70936,1.01751 0.50413,2.035 -0.58684,-0.24451 -0.38582,-1.55724 -1.3774,0.82256 -0.58684,-0.24451 1.83669,-1.09458 -0.47461,-1.89258 0.58684,0.24452 0.35359,1.41368 1.25278,-0.74436 0.58684,0.24451"
         style=""
         id="path3946" />
      <path
         d="m 106.8472,383.98457 -0.35832,0.85997 1.02494,0.42706 -0.16113,0.38672 -1.02494,-0.42706 -0.6851,1.64423 c -0.10292,0.247 -0.13567,0.41955 -0.0983,0.51765 0.0392,0.0989 0.16249,0.19149 0.36982,0.27787 l 0.51112,0.21297 -0.17353,0.41647 -0.51112,-0.21297 c -0.38401,-0.16001 -0.61936,-0.34165 -0.70605,-0.54492 -0.0859,-0.20508 -0.05,-0.49692 0.10772,-0.87553 l 0.6851,-1.64423 -0.36509,-0.15212 0.16114,-0.38672 0.36508,0.15212 0.35832,-0.85997 0.5003,0.20846"
         style=""
         id="path3948" />
      <path
         d="m 110.18254,388.01491 -0.10141,0.24339 -2.28786,-0.95328 c -0.1211,0.35157 -0.12726,0.6558 -0.0185,0.91271 0.11132,0.25586 0.33195,0.45253 0.66188,0.59 0.1911,0.0796 0.38567,0.13319 0.58368,0.16068 0.19982,0.0282 0.4076,0.0323 0.62335,0.0122 l -0.19606,0.47055 c -0.21004,0.001 -0.41707,-0.0172 -0.6211,-0.0557 -0.20402,-0.0385 -0.40249,-0.0979 -0.5954,-0.17826 -0.48317,-0.20133 -0.80769,-0.50158 -0.97356,-0.90077 -0.16406,-0.39844 -0.14618,-0.83744 0.0536,-1.31701 0.20658,-0.49579 0.50375,-0.83323 0.89153,-1.01232 0.39032,-0.18013 0.81264,-0.17555 1.26697,0.0138 0.40745,0.16978 0.67443,0.43548 0.80094,0.7971 0.12905,0.36058 0.0997,0.76623 -0.0881,1.21695 m -0.43675,-0.35337 c 0.10982,-0.27373 0.12372,-0.52291 0.0417,-0.74752 -0.0802,-0.22385 -0.24294,-0.38686 -0.48813,-0.48903 -0.27765,-0.11568 -0.53298,-0.13003 -0.766,-0.043 -0.23122,0.0877 -0.4188,0.26878 -0.56272,0.54312 l 1.77516,0.73647 m 0.62335,-2.84427 0.53816,0.22423 -1.30529,0.64949 -0.41376,-0.1724 1.18089,-0.70132"
         style=""
         id="path3950" />
      <path
         d="m 113.13972,388.16162 c -0.0424,-0.0557 -0.0939,-0.10472 -0.15459,-0.14694 -0.0581,-0.0433 -0.12688,-0.0814 -0.20621,-0.11448 -0.28125,-0.11719 -0.53591,-0.11538 -0.76397,0.005 -0.22551,0.11974 -0.40963,0.35088 -0.55236,0.69343 l -0.66481,1.59555 -0.5003,-0.20845 1.26202,-3.02885 0.5003,0.20846 -0.19607,0.47055 c 0.18119,-0.14032 0.37402,-0.21972 0.5785,-0.23821 0.20523,-0.0203 0.42773,0.0195 0.66752,0.11945 0.0343,0.0143 0.071,0.0328 0.1102,0.0554 0.04,0.0209 0.0833,0.0464 0.13004,0.0764 l -0.21027,0.51225"
         style=""
         id="path3952" />
      <path
         d="m 113.86087,387.9162 0.4976,0.20733 -1.26202,3.02884 -0.4976,-0.20733 1.26202,-3.02884 m 0.49129,-1.17909 0.4976,0.20733 -0.26255,0.63011 -0.4976,-0.20733 0.26255,-0.63011"
         style=""
         id="path3954" />
      <path
         d="m 117.40851,391.02571 -0.10142,0.24339 -2.28786,-0.95327 c -0.12109,0.35156 -0.12725,0.6558 -0.0185,0.91271 0.11133,0.25586 0.33196,0.45252 0.66189,0.58999 0.1911,0.0796 0.38566,0.13319 0.58368,0.16068 0.19982,0.0282 0.4076,0.0323 0.62335,0.0122 l -0.19606,0.47056 c -0.21004,0.001 -0.41707,-0.0172 -0.6211,-0.0557 -0.20403,-0.0385 -0.40249,-0.0979 -0.5954,-0.17826 -0.48318,-0.20132 -0.80769,-0.50158 -0.97356,-0.90077 -0.16406,-0.39843 -0.14618,-0.83743 0.0536,-1.317 0.20658,-0.49579 0.50375,-0.83323 0.89152,-1.01232 0.39033,-0.18014 0.81265,-0.17556 1.26698,0.0137 0.40745,0.16978 0.67443,0.43548 0.80093,0.79711 0.12906,0.36057 0.0997,0.76622 -0.0881,1.21694 m -0.43675,-0.35336 c 0.10982,-0.27374 0.12372,-0.52291 0.0417,-0.74752 -0.0802,-0.22386 -0.24294,-0.38687 -0.48813,-0.48904 -0.27765,-0.11568 -0.53298,-0.13003 -0.766,-0.043 -0.23122,0.0877 -0.4188,0.26878 -0.56273,0.54312 l 1.77517,0.73648"
         style=""
         id="path3956" />
      <path
         d="m 117.98903,391.7881 0.76397,-1.83353 0.4976,0.20733 -0.75608,1.81461 c -0.11945,0.28666 -0.15333,0.52539 -0.10164,0.71619 0.0524,0.189 0.19043,0.33008 0.41398,0.42323 0.26863,0.11193 0.51615,0.11456 0.74257,0.008 0.22821,-0.10592 0.40392,-0.30672 0.52712,-0.60239 l 0.71552,-1.71725 0.49759,0.20733 -1.26202,3.02885 -0.49759,-0.20733 0.19381,-0.46515 c -0.19742,0.13357 -0.39514,0.21199 -0.59315,0.23528 -0.19547,0.0222 -0.39867,-0.0106 -0.6096,-0.0985 -0.34796,-0.14499 -0.56701,-0.36321 -0.65715,-0.65468 -0.0902,-0.29146 -0.0485,-0.64543 0.12507,-1.0619"
         style=""
         id="path3958" />
      <path
         d="m 123.88131,392.63726 c -0.0424,-0.0557 -0.0939,-0.10471 -0.1546,-0.14693 -0.0581,-0.0433 -0.12688,-0.0814 -0.2062,-0.11448 -0.28126,-0.11719 -0.53591,-0.11539 -0.76398,0.005 -0.22551,0.11975 -0.40963,0.35089 -0.55235,0.69344 l -0.66482,1.59555 -0.5003,-0.20846 1.26202,-3.02884 0.5003,0.20845 -0.19606,0.47056 c 0.18119,-0.14032 0.37402,-0.21973 0.5785,-0.23821 0.20522,-0.0203 0.42773,0.0195 0.66752,0.11944 0.0343,0.0143 0.071,0.0328 0.1102,0.0554 0.04,0.0209 0.0833,0.0463 0.13003,0.0764 l -0.21026,0.51224"
         style=""
         id="path3960" />
      <path
         d="m 126.49504,394.81178 -0.10141,0.24339 -2.28786,-0.95327 c -0.1211,0.35156 -0.12726,0.6558 -0.0185,0.91271 0.11132,0.25586 0.33195,0.45252 0.66188,0.58999 0.1911,0.0796 0.38567,0.13319 0.58368,0.16068 0.19982,0.0282 0.4076,0.0323 0.62335,0.0122 l -0.19606,0.47056 c -0.21004,0.001 -0.41707,-0.0172 -0.6211,-0.0557 -0.20402,-0.0385 -0.40249,-0.0979 -0.5954,-0.17826 -0.48317,-0.20132 -0.80769,-0.50158 -0.97356,-0.90076 -0.16406,-0.39844 -0.14618,-0.83744 0.0536,-1.31701 0.20658,-0.49579 0.50375,-0.83323 0.89153,-1.01232 0.39032,-0.18014 0.81264,-0.17555 1.26697,0.0137 0.40745,0.16977 0.67443,0.43547 0.80094,0.7971 0.12905,0.36058 0.0997,0.76622 -0.0881,1.21694 m -0.43675,-0.35336 c 0.10982,-0.27374 0.12372,-0.52291 0.0417,-0.74752 -0.0802,-0.22386 -0.24294,-0.38687 -0.48813,-0.48903 -0.27765,-0.11569 -0.53298,-0.13004 -0.766,-0.0431 -0.23122,0.0877 -0.4188,0.26878 -0.56272,0.54312 l 1.77516,0.73648"
         style=""
         id="path3962" />
    </g>
  </g>
</svg>
