<?xml version="1.0" encoding="UTF-8" standalone="no"?>
<!-- Created with Inkscape (http://www.inkscape.org/) -->

<svg
   xmlns:dc="http://purl.org/dc/elements/1.1/"
   xmlns:cc="http://creativecommons.org/ns#"
   xmlns:rdf="http://www.w3.org/1999/02/22-rdf-syntax-ns#"
   xmlns:svg="http://www.w3.org/2000/svg"
   xmlns="http://www.w3.org/2000/svg"
   xmlns:sodipodi="http://sodipodi.sourceforge.net/DTD/sodipodi-0.dtd"
   xmlns:inkscape="http://www.inkscape.org/namespaces/inkscape"
   id="svg3092"
   version="1.1"
   inkscape:version="0.48.0 r9654"
   width="423.31308"
   height="285.8721"
   xml:space="preserve"
   sodipodi:docname="node.svg"
   inkscape:export-filename="/home/fred/work/article/livre-osm/part1/node.png"
   inkscape:export-xdpi="63.782578"
   inkscape:export-ydpi="63.782578"><metadata
     id="metadata3098"><rdf:RDF><cc:Work
         rdf:about=""><dc:format>image/svg+xml</dc:format><dc:type
           rdf:resource="http://purl.org/dc/dcmitype/StillImage" /><dc:title></dc:title></cc:Work></rdf:RDF></metadata><defs
     id="defs3096"><clipPath
       clipPathUnits="userSpaceOnUse"
       id="clipPath3108"><path
         d="m 54,738 504,0 0,-661.703 -504,0 L 54,738 z"
         id="path3110"
         inkscape:connector-curvature="0" /></clipPath><clipPath
       clipPathUnits="userSpaceOnUse"
       id="clipPath3314"><path
         d="m 54,738 504,0 0,-661.703 -504,0 L 54,738 z"
         id="path3316"
         inkscape:connector-curvature="0" /></clipPath><clipPath
       clipPathUnits="userSpaceOnUse"
       id="clipPath3320"><path
         d="m 54,738 558.016,0 0,-13.125 -558.016,0 0,13.125 z"
         id="path3322"
         inkscape:connector-curvature="0" /></clipPath><clipPath
       clipPathUnits="userSpaceOnUse"
       id="clipPath3328"><path
         d="M 0,0 612,0 612,792 0,792 0,0 z"
         id="path3330"
         inkscape:connector-curvature="0" /></clipPath><mask
       maskUnits="userSpaceOnUse"
       x="0"
       y="0"
       width="1"
       height="1"
       id="mask3332"><g
         id="g3334"><g
           clip-path="url(#clipPath3328)"
           id="g3336"><path
             d="M 0,0 612,0 612,792 0,792 0,0 z"
             style="fill:#ffffff;fill-opacity:0.8;fill-rule:nonzero;stroke:none"
             id="path3338"
             inkscape:connector-curvature="0" /></g></g></mask><clipPath
       clipPathUnits="userSpaceOnUse"
       id="clipPath3344"><path
         d="M 0,0 612,0 612,792 0,792 0,0 z"
         id="path3346"
         inkscape:connector-curvature="0" /></clipPath><clipPath
       clipPathUnits="userSpaceOnUse"
       id="clipPath3348"><path
         d="M 0,0 504,0 504,14 0,14 0,0 z"
         id="path3350"
         inkscape:connector-curvature="0" /></clipPath><pattern
       patternTransform="translate(54,724)"
       patternUnits="userSpaceOnUse"
       x="0"
       y="0"
       width="504"
       height="14"
       id="pattern3352"><g
         id="g3354" /><g
         id="g3356"><g
           clip-path="url(#clipPath3348)"
           id="g3358"><g
             id="g3360"><path
               d="m 0,14 558.016,0 0,-13.125 L 0,0.875 0,14 z"
               style="fill:#ffffff;fill-opacity:1;fill-rule:nonzero;stroke:none"
               id="path3362" /><path
               d="m 0,14 558.016,0 0,-13.125 L 0,0.875 0,14 z"
               style="fill:#ffffff;fill-opacity:1;fill-rule:nonzero;stroke:none"
               id="path3364" /><path
               d="m 0,14 558.016,0 0,-13.125 L 0,0.875 0,14 z"
               style="fill:#ffffff;fill-opacity:1;fill-rule:nonzero;stroke:none"
               id="path3366" /><path
               d="m 0,14 558.016,0 0,-13.125 L 0,0.875 0,14 z"
               style="fill:#ffffff;fill-opacity:1;fill-rule:nonzero;stroke:none"
               id="path3368" /></g></g></g></pattern><clipPath
       clipPathUnits="userSpaceOnUse"
       id="clipPath3382"><path
         d="M 0,792 612,792 612,0 0,0 0,792 z"
         id="path3384"
         inkscape:connector-curvature="0" /></clipPath><clipPath
       clipPathUnits="userSpaceOnUse"
       id="clipPath3394"><path
         d="M 0,792 612,792 612,0 0,0 0,792 z"
         id="path3396"
         inkscape:connector-curvature="0" /></clipPath><clipPath
       clipPathUnits="userSpaceOnUse"
       id="clipPath3406"><path
         d="M 0,792 612,792 612,0 0,0 0,792 z"
         id="path3408"
         inkscape:connector-curvature="0" /></clipPath><clipPath
       clipPathUnits="userSpaceOnUse"
       id="clipPath3418"><path
         d="M 0,792 612,792 612,0 0,0 0,792 z"
         id="path3420"
         inkscape:connector-curvature="0" /></clipPath></defs><sodipodi:namedview
     pagecolor="#ffffff"
     bordercolor="#666666"
     borderopacity="1"
     objecttolerance="10"
     gridtolerance="10"
     guidetolerance="10"
     inkscape:pageopacity="0"
     inkscape:pageshadow="2"
     inkscape:window-width="1280"
     inkscape:window-height="980"
     id="namedview3094"
     showgrid="false"
     inkscape:zoom="0.82567216"
     inkscape:cx="263.69732"
     inkscape:cy="-33.349301"
     inkscape:window-x="0"
     inkscape:window-y="25"
     inkscape:window-maximized="1"
     inkscape:current-layer="g3100"
     fit-margin-top="0"
     fit-margin-left="0"
     fit-margin-right="0"
     fit-margin-bottom="0" /><g
     id="g3100"
     inkscape:groupmode="layer"
     inkscape:label="tmp"
     transform="matrix(1.25,0,0,-1.25,-72.734375,908.21121)"><g
       id="g3833"
       transform="matrix(0.68328815,0,0,1,18.432313,0)"><path
         inkscape:connector-curvature="0"
         id="path3114"
         style="fill:#5a5a5a;fill-opacity:1;fill-rule:nonzero;stroke:none"
         d="m 58.199,514 495.602,0 0,-0.699 -495.602,0 0,0.699 z" /><path
         inkscape:connector-curvature="0"
         id="path3116"
         style="fill:#5a5a5a;fill-opacity:1;fill-rule:nonzero;stroke:none"
         d="m 58.199,513.301 0.699,0 0,-0.699 -0.699,0 0,0.699 z" /><path
         inkscape:connector-curvature="0"
         id="path3118"
         style="fill:#bfbfbf;fill-opacity:1;fill-rule:nonzero;stroke:none"
         d="m 553.102,514 0.699,0 0,-0.699 -0.699,0 0,0.699 z" /><path
         inkscape:connector-curvature="0"
         id="path3120"
         style="fill:#bfbfbf;fill-opacity:1;fill-rule:nonzero;stroke:none"
         d="m 58.199,513.301 495.602,0 0,-0.699 -495.602,0 0,0.699 z" /></g><g
       id="g3122"
       transform="matrix(1,0,0,-1,0,792)"><path
         d="m 58.199,73.25 58.102,0"
         style="fill:none;stroke:#0000ee;stroke-width:0.69999999;stroke-linecap:butt;stroke-linejoin:miter;stroke-miterlimit:10;stroke-opacity:1;stroke-dasharray:none"
         id="path3124"
         inkscape:connector-curvature="0" /></g><text
       transform="scale(1,-1)"
       id="text3126"
       x="58.200001"
       y="-720.15002"><tspan
         style="font-size:8.39999962px;font-variant:normal;font-weight:normal;writing-mode:lr-tb;fill:#0000ee;fill-opacity:1;fill-rule:nonzero;stroke:none;font-family:DejaVu Serif;-inkscape-font-specification:DejaVuSerif"
         x="58.200001 63.097198 65.886002 71.4804 77.083199 82.677597 88.280403 93.874802 99.4776 105.072 110.6664"
         y="-720.15002"
         sodipodi:role="line"
         id="tspan3128">« 240740863</tspan></text>
<text
       transform="scale(1,-1)"
       id="text3130"
       x="119.0888"
       y="-720.15002"><tspan
         style="font-size:8.39999962px;font-variant:normal;font-weight:normal;writing-mode:lr-tb;fill:#000000;fill-opacity:1;fill-rule:nonzero;stroke:none;font-family:DejaVu Serif;-inkscape-font-specification:DejaVuSerif"
         x="119.0888 121.886"
         y="-720.15002"
         sodipodi:role="line"
         id="tspan3132">| </tspan></text>
<g
       id="g3134"
       transform="matrix(1,0,0,-1,0,792)"><path
         d="m 124.699,73.25 58.102,0"
         style="fill:none;stroke:#0000ee;stroke-width:0.69999999;stroke-linecap:butt;stroke-linejoin:miter;stroke-miterlimit:10;stroke-opacity:1;stroke-dasharray:none"
         id="path3136"
         inkscape:connector-curvature="0" /></g><text
       transform="scale(1,-1)"
       id="text3138"
       x="124.7"
       y="-720.15002"><tspan
         style="font-size:8.39999962px;font-variant:normal;font-weight:normal;writing-mode:lr-tb;fill:#0000ee;fill-opacity:1;fill-rule:nonzero;stroke:none;font-family:DejaVu Serif;-inkscape-font-specification:DejaVuSerif"
         x="124.7 130.2944 135.8972 141.49159 147.09441 152.6888 158.2916 163.886 169.48039 175.08321 177.87199"
         y="-720.15002"
         sodipodi:role="line"
         id="tspan3140">240740867 »</tspan></text>
<text
       transform="scale(1,-1)"
       id="text3142"
       x="58.200001"
       y="-695.69373"><tspan
         style="font-size:12.60000038px;font-variant:normal;font-weight:bold;writing-mode:lr-tb;fill:#000000;fill-opacity:1;fill-rule:nonzero;stroke:none;font-family:DejaVu Serif Bold;-inkscape-font-specification:DejaVuSerif-Bold"
         x="58.200001 70.094398 83.387398 92.484596 101.5818 105.7776 110.679 114.8748 124.66499 133.0692 140.06219 147.7482 156.858 165.237 170.83141 176.41321 184.89999 189.09581 195.3958 204.48041 213.57761 222.6622 231.7594 240.84401 249.94121 259.02582 268.11041 277.20761"
         y="-695.69373"
         sodipodi:role="line"
         id="tspan3144">Nœud : Peychotte (240740864)</tspan></text>
<text
       transform="scale(1,-1)"
       id="text3146"
       x="114.025"
       y="-671.76251"><tspan
         style="font-size:8.39999962px;font-variant:normal;font-weight:bold;writing-mode:lr-tb;fill:#000000;fill-opacity:1;fill-rule:nonzero;stroke:none;font-family:DejaVu Serif Bold;-inkscape-font-specification:DejaVuSerif-Bold"
         x="114.025 123.1138 128.70821 135.00819 138.50259 141.99699 145.49139 151.0858 153.8914 157.3774 162.98019 165.7774"
         y="-671.76251"
         sodipodi:role="line"
         id="tspan3148">Modifié le :</tspan></text>
<text
       transform="scale(1,-1)"
       id="text3150"
       x="224.9218"
       y="-671.76251"><tspan
         style="font-size:8.39999962px;font-variant:normal;font-weight:normal;writing-mode:lr-tb;fill:#000000;fill-opacity:1;fill-rule:nonzero;stroke:none;font-family:DejaVu Serif;-inkscape-font-specification:DejaVuSerif"
         x="224.9218 230.5246 236.119 238.9162 247.31619 252.21339 256.47501 260.67499 263.46381 269.06659 274.66101 280.26379 285.85818 288.647 294.24979 299.84421 302.64139 308.23581"
         y="-671.76251"
         sodipodi:role="line"
         id="tspan3152">31 mars 2010 20:51</tspan></text>
<text
       transform="scale(1,-1)"
       id="text3154"
       x="110.17499"
       y="-659.16248"><tspan
         style="font-size:8.39999962px;font-variant:normal;font-weight:bold;writing-mode:lr-tb;fill:#000000;fill-opacity:1;fill-rule:nonzero;stroke:none;font-family:DejaVu Serif Bold;-inkscape-font-specification:DejaVuSerif-Bold"
         x="110.17499 119.26379 124.85819 131.15819 134.65259 138.14699 141.64139 147.23579 150.0414 156.33299 161.92738 166.82458 169.6218"
         y="-659.16248"
         sodipodi:role="line"
         id="tspan3156">Modifié par :</tspan></text>
<g
       id="g3158"
       transform="matrix(1,0,0,-1,0,792)"><path
         d="m 224.801,134.148 35.699,0"
         style="color:#000000;fill:none;stroke:#0000ee;stroke-width:0.69999999;stroke-linecap:butt;stroke-linejoin:miter;stroke-miterlimit:10;stroke-opacity:1;stroke-dasharray:none;stroke-dashoffset:0;marker:none;visibility:visible;display:inline;overflow:visible;enable-background:accumulate"
         id="path3160"
         inkscape:connector-curvature="0" /></g><text
       transform="scale(1,-1)"
       id="text3162"
       style="font-size:8.39999962px;font-style:normal;font-variant:normal;font-weight:normal;font-stretch:normal;text-indent:0;text-align:start;text-decoration:none;line-height:normal;letter-spacing:normal;word-spacing:normal;text-transform:none;direction:ltr;block-progression:tb;writing-mode:lr-tb;text-anchor:start;baseline-shift:baseline;color:#000000;fill:#0000ee;fill-opacity:1;fill-rule:nonzero;stroke:none;stroke-width:1;marker:none;visibility:visible;display:inline;overflow:visible;enable-background:accumulate;font-family:DejaVu Serif;-inkscape-font-specification:DejaVuSerif"
       x="224.97501"
       y="-659.16248"><tspan
         style="font-size:8.39999962px;font-style:normal;font-variant:normal;font-weight:normal;font-stretch:normal;text-indent:0;text-align:start;text-decoration:none;line-height:normal;letter-spacing:normal;word-spacing:normal;text-transform:none;direction:ltr;block-progression:tb;writing-mode:lr-tb;text-anchor:start;baseline-shift:baseline;color:#000000;fill:#0000ee;fill-opacity:1;fill-rule:nonzero;stroke:none;stroke-width:1;marker:none;visibility:visible;display:inline;overflow:visible;enable-background:accumulate;font-family:DejaVu Serif;-inkscape-font-specification:DejaVuSerif"
         x="224.97501 228.4778 232.6778 237.575 243.1694 247.3694 250.1666 255.761"
         y="-659.16248"
         sodipodi:role="line"
         id="tspan3164">frodrigo</tspan></text>
<text
       transform="scale(1,-1)"
       id="text3166"
       x="119.975"
       y="-646.5625"><tspan
         style="font-size:8.39999962px;font-variant:normal;font-weight:bold;writing-mode:lr-tb;fill:#000000;fill-opacity:1;fill-rule:nonzero;stroke:none;font-family:DejaVu Serif Bold;-inkscape-font-specification:DejaVuSerif-Bold"
         x="119.975 126.2666 131.8694 136.75819 141.647 145.1414 150.73579 157.0358 159.83301"
         y="-646.5625"
         sodipodi:role="line"
         id="tspan3168">Version :</tspan></text>
<text
       transform="scale(1,-1)"
       id="text3170"
       x="224.933"
       y="-646.5625"><tspan
         style="font-size:8.39999962px;font-variant:normal;font-weight:normal;writing-mode:lr-tb;fill:#000000;fill-opacity:1;fill-rule:nonzero;stroke:none;font-family:DejaVu Serif;-inkscape-font-specification:DejaVuSerif"
         x="224.933"
         y="-646.5625"
         id="tspan3172">4</tspan></text>
<text
       transform="scale(1,-1)"
       id="text3174"
       x="59.774998"
       y="-633.96252"><tspan
         style="font-size:8.39999962px;font-variant:normal;font-weight:bold;writing-mode:lr-tb;fill:#000000;fill-opacity:1;fill-rule:nonzero;stroke:none;font-family:DejaVu Serif Bold;-inkscape-font-specification:DejaVuSerif-Bold"
         x="59.774998 66.772194 72.3666 78.666595 83.555397 86.3526 89.847 95.449799 98.246994 104.547 109.4358 115.0302 121.33019 127.6218 133.22459 136.0218 142.32179 147.97499 150.7722 159.8694 165.46379 171.76379 175.25819 178.75259 182.24699 187.1358 192.73019 196.9218 200.4162 206.01059 212.31059 217.19939 219.9966"
         y="-633.96252"
         sodipodi:role="line"
         id="tspan3176">Dans le groupe de modifications :</tspan></text>
<g
       id="g3178"
       transform="matrix(1,0,0,-1,0,792)"><path
         d="m 224.801,159.352 39.199,0"
         style="fill:none;stroke:#0000ee;stroke-width:0.69999999;stroke-linecap:butt;stroke-linejoin:miter;stroke-miterlimit:10;stroke-opacity:1;stroke-dasharray:none"
         id="path3180"
         inkscape:connector-curvature="0" /></g><text
       transform="scale(1,-1)"
       id="text3182"
       x="224.97501"
       y="-633.96252"><tspan
         style="font-size:8.39999962px;font-variant:normal;font-weight:normal;writing-mode:lr-tb;fill:#0000ee;fill-opacity:1;fill-rule:nonzero;stroke:none;font-family:DejaVu Serif;-inkscape-font-specification:DejaVuSerif"
         x="224.97501 230.5694 236.1722 241.7666 247.3694 252.96381 258.56659"
         y="-633.96252"
         sodipodi:role="line"
         id="tspan3184">4289376</tspan></text>
<text
       transform="scale(1,-1)"
       id="text3186"
       x="105.625"
       y="-621.36249"><tspan
         style="font-size:8.39999962px;font-variant:normal;font-weight:bold;writing-mode:lr-tb;fill:#000000;fill-opacity:1;fill-rule:nonzero;stroke:none;font-family:DejaVu Serif Bold;-inkscape-font-specification:DejaVuSerif-Bold"
         x="105.625 111.9166 117.511 126.6082 135.7054 141.3082 147.6082 151.7998 157.3858 160.8802 165.7774 171.3718 174.16901"
         y="-621.36249"
         sodipodi:role="line"
         id="tspan3188">Commentaire :</tspan></text>
<text
       transform="scale(1,-1)"
       id="text3190"
       x="224.9218"
       y="-621.36249"><tspan
         style="font-size:8.39999962px;font-variant:normal;font-weight:normal;writing-mode:lr-tb;fill:#000000;fill-opacity:1;fill-rule:nonzero;stroke:none;font-family:DejaVu Serif;-inkscape-font-specification:DejaVuSerif"
         x="224.9218 231.21339 236.1022 238.8994 245.8882 250.7854 255.6826 264.17499 269.0722 273.96939 276.7666 282.36099 287.95541 293.5582 296.34702 299.1442 304.04141 308.24139 311.73581 315.93579 320.83301 326.43579 330.62741 336.23019 341.12741 345.32739 348.875 353.07501 357.27499 362.17221 367.77499 372.66382 381.06381"
         y="-621.36249"
         sodipodi:role="line"
         id="tspan3192">Bx Oxomoa/Public_transport_schema</tspan></text>
<text
       transform="scale(1,-1)"
       id="text3194"
       x="121.025"
       y="-608.76251"><tspan
         style="font-size:8.39999962px;font-variant:normal;font-weight:bold;writing-mode:lr-tb;fill:#000000;fill-opacity:1;fill-rule:nonzero;stroke:none;font-family:DejaVu Serif Bold;-inkscape-font-specification:DejaVuSerif-Bold"
         x="121.025 128.0222 133.61661 137.11101 140.597 145.4942 151.08861 155.98579 158.783"
         y="-608.76251"
         sodipodi:role="line"
         id="tspan3196">Balises :</tspan></text>
<g
       id="g3198"
       transform="matrix(1,0,0,-1,0,792)"><path
         d="m 226.199,185.25 23.801,0"
         style="fill:none;stroke:#0000ee;stroke-width:0.69999999;stroke-linecap:butt;stroke-linejoin:miter;stroke-miterlimit:10;stroke-opacity:1;stroke-dasharray:none"
         id="path3200"
         inkscape:connector-curvature="0" /></g><text
       transform="scale(1,-1)"
       id="text3202"
       x="226.02499"
       y="-607.71252"><tspan
         style="font-size:8.39999962px;font-variant:normal;font-weight:normal;writing-mode:lr-tb;fill:#0000ee;fill-opacity:1;fill-rule:nonzero;stroke:none;font-family:DejaVu Serif;-inkscape-font-specification:DejaVuSerif"
         x="226.02499 231.62779 236.52499 244.925"
         y="-607.71252"
         sodipodi:role="line"
         id="tspan3204">name</tspan></text>
<text
       transform="scale(1,-1)"
       id="text3206"
       x="252.6138"
       y="-607.71252"><tspan
         style="font-size:8.39999962px;font-variant:normal;font-weight:normal;writing-mode:lr-tb;fill:#000000;fill-opacity:1;fill-rule:nonzero;stroke:none;font-family:DejaVu Serif;-inkscape-font-specification:DejaVuSerif"
         x="252.6138 259.61099 262.39981 267.9942 272.89139 277.78021 282.6774 288.28021 293.1774 296.67178 300.1662"
         y="-607.71252"
         sodipodi:role="line"
         id="tspan3208">= Peychotte</tspan><tspan
         style="font-size:8.39999962px;font-variant:normal;font-weight:normal;writing-mode:lr-tb;fill:#000000;fill-opacity:1;fill-rule:nonzero;stroke:none;font-family:DejaVu Serif;-inkscape-font-specification:DejaVuSerif"
         x="226.02501 231.62781 236.5166 240.011 246.9998 251.9054 256.10541 261.69141 264.48862 271.47742 274.2746 279.8606 286.15219"
         y="-596.16248"
         sodipodi:role="line"
         id="tspan3210">network = TBC</tspan><tspan
         style="font-size:8.39999962px;font-variant:normal;font-weight:normal;writing-mode:lr-tb;fill:#000000;fill-opacity:1;fill-rule:nonzero;stroke:none;font-family:DejaVu Serif;-inkscape-font-specification:DejaVuSerif"
         x="226.02501 231.62781 237.2222 242.825 245.6138 248.411 253.3082 257.50821 261.00259 265.20261 270.09979 275.70261 279.8942 285.49701 290.3942 294.59421 298.08859 300.87741 307.8746 310.72501 314.92499 318.4194 323.31659 328.91101 333.11099 338.71381 343.61099 347.811 350.60818 354.09421 356.89139 361.7886"
         y="-584.61249"
         sodipodi:role="line"
         id="tspan3212">public_transport = stop_position</tspan></text>
<g
       id="g3214"
       transform="matrix(1,0,0,-1,0,792)"><path
         d="m 226.199,220.25 31.5,0"
         style="fill:none;stroke:#0000ee;stroke-width:0.69999999;stroke-linecap:butt;stroke-linejoin:miter;stroke-miterlimit:10;stroke-opacity:1;stroke-dasharray:none"
         id="path3216"
         inkscape:connector-curvature="0" /></g><text
       transform="scale(1,-1)"
       id="text3218"
       x="226.02499"
       y="-573.0625"><tspan
         style="font-size:8.39999962px;font-variant:normal;font-weight:normal;writing-mode:lr-tb;fill:#0000ee;fill-opacity:1;fill-rule:nonzero;stroke:none;font-family:DejaVu Serif;-inkscape-font-specification:DejaVuSerif"
         x="226.02499 230.22501 235.12221 237.9194 240.70821 247.7054 252.6026"
         y="-573.0625"
         sodipodi:role="line"
         id="tspan3220">railway</tspan></text>
<text
       transform="scale(1,-1)"
       id="text3222"
       x="260.31381"
       y="-573.0625"><tspan
         style="font-size:8.39999962px;font-variant:normal;font-weight:normal;writing-mode:lr-tb;fill:#000000;fill-opacity:1;fill-rule:nonzero;stroke:none;font-family:DejaVu Serif;-inkscape-font-specification:DejaVuSerif"
         x="260.31381 267.311"
         y="-573.0625"
         sodipodi:role="line"
         id="tspan3224">= </tspan></text>
<g
       id="g3226"
       transform="matrix(1,0,0,-1,0,792)"><path
         d="m 270.301,220.25 43.398,0"
         style="fill:none;stroke:#0000ee;stroke-width:0.69999999;stroke-linecap:butt;stroke-linejoin:miter;stroke-miterlimit:10;stroke-opacity:1;stroke-dasharray:none"
         id="path3228"
         inkscape:connector-curvature="0" /></g><text
       transform="scale(1,-1)"
       id="text3230"
       x="270.125"
       y="-573.0625"><tspan
         style="font-size:8.39999962px;font-variant:normal;font-weight:normal;writing-mode:lr-tb;fill:#0000ee;fill-opacity:1;fill-rule:nonzero;stroke:none;font-family:DejaVu Serif;-inkscape-font-specification:DejaVuSerif"
         x="270.125 273.61938 277.8194 282.71661 291.11661 295.31659 299.50821 303.00259 307.9082"
         y="-573.0625"
         sodipodi:role="line"
         id="tspan3232">tram_stop</tspan></text>
<text
       transform="scale(1,-1)"
       id="text3234"
       x="226.02499"
       y="-561.51251"><tspan
         style="font-size:8.39999962px;font-variant:normal;font-weight:normal;writing-mode:lr-tb;fill:#000000;fill-opacity:1;fill-rule:nonzero;stroke:none;font-family:DejaVu Serif;-inkscape-font-specification:DejaVuSerif"
         x="226.02499 229.51939 233.71941 238.61661 247.0166 249.8054 256.80261 259.5914 264.48019 269.37741"
         y="-561.51251"
         sodipodi:role="line"
         id="tspan3236">tram = yes</tspan></text>
<text
       transform="scale(1,-1)"
       id="text3238"
       x="107.02499"
       y="-547.86249"><tspan
         style="font-size:8.39999962px;font-variant:normal;font-weight:bold;writing-mode:lr-tb;fill:#000000;fill-opacity:1;fill-rule:nonzero;stroke:none;font-family:DejaVu Serif Bold;-inkscape-font-specification:DejaVuSerif-Bold"
         x="107.02499 113.31659 118.91099 124.49699 129.3942 135.69418 141.28018 147.58018 153.88019 159.48299 165.07739 169.97459 172.77179"
         y="-547.86249"
         sodipodi:role="line"
         id="tspan3240">Coordonnées :</tspan></text>
<g
       id="g3242"
       transform="matrix(1,0,0,-1,0,792)"><path
         d="m 224.801,245.449 109.199,0"
         style="fill:none;stroke:#0000ee;stroke-width:0.69999999;stroke-linecap:butt;stroke-linejoin:miter;stroke-miterlimit:10;stroke-opacity:1;stroke-dasharray:none"
         id="path3244"
         inkscape:connector-curvature="0" /></g><text
       transform="scale(1,-1)"
       id="text3246"
       x="224.97501"
       y="-547.86249"><tspan
         style="font-size:8.39999962px;font-variant:normal;font-weight:normal;writing-mode:lr-tb;fill:#0000ee;fill-opacity:1;fill-rule:nonzero;stroke:none;font-family:DejaVu Serif;-inkscape-font-specification:DejaVuSerif"
         x="224.97501 230.5694 236.1722 238.961 244.5638 250.1582 255.761 261.35541 266.95819 272.55261 278.147 280.94421 283.733 286.53021 292.1246 294.92181 300.5162 306.11899 311.77499 317.36938 322.9722 328.56659"
         y="-547.86249"
         sodipodi:role="line"
         id="tspan3248">44,8265834, -0,6197904</tspan></text>
<text
       transform="scale(1,-1)"
       id="text3250"
       x="96.525002"
       y="-535.26251"><tspan
         style="font-size:8.39999962px;font-variant:normal;font-weight:bold;writing-mode:lr-tb;fill:#000000;fill-opacity:1;fill-rule:nonzero;stroke:none;font-family:DejaVu Serif Bold;-inkscape-font-specification:DejaVuSerif-Bold"
         x="96.525002 102.8166 108.411 111.9054 116.7942 122.3886 128.6886 132.8802 135.6774 141.9774 147.5634 152.4606 156.65221 160.14661 165.741 168.53819 174.8382 180.52499 183.3222"
         y="-535.26251"
         sodipodi:role="line"
         id="tspan3252">Faisant partie de :</tspan></text>
<g
       id="g3254"
       transform="matrix(1,0,0,-1,0,792)"><path
         d="m 226.199,258.75 44.801,0"
         style="fill:none;stroke:#0000ee;stroke-width:0.69999999;stroke-linecap:butt;stroke-linejoin:miter;stroke-miterlimit:10;stroke-opacity:1;stroke-dasharray:none"
         id="path3256"
         inkscape:connector-curvature="0" /></g><text
       transform="scale(1,-1)"
       id="text3258"
       x="226.02499"
       y="-534.21252"><tspan
         style="font-size:8.39999962px;font-variant:normal;font-weight:normal;writing-mode:lr-tb;fill:#0000ee;fill-opacity:1;fill-rule:nonzero;stroke:none;font-family:DejaVu Serif;-inkscape-font-specification:DejaVuSerif"
         x="226.02499 231.6194 237.2222 242.8166 248.4194 254.01379 259.61661 265.211"
         y="-534.21252"
         sodipodi:role="line"
         id="tspan3260">37379192</tspan></text>
<text
       transform="scale(1,-1)"
       id="text3262"
       x="226.02499"
       y="-522.66248"><tspan
         style="font-size:8.39999962px;font-variant:normal;font-weight:normal;writing-mode:lr-tb;fill:#000000;fill-opacity:1;fill-rule:nonzero;stroke:none;font-family:DejaVu Serif;-inkscape-font-specification:DejaVuSerif"
         x="226.02499 232.3166 237.21381 240.00259 244.8998 248.3942 251.19141 256.08859 261.68301"
         y="-522.66248"
         sodipodi:role="line"
         id="tspan3264">Relation </tspan></text>
<g
       id="g3266"
       transform="matrix(1,0,0,-1,0,792)"><path
         d="m 264.699,270.648 28,0"
         style="fill:none;stroke:#0000ee;stroke-width:0.69999999;stroke-linecap:butt;stroke-linejoin:miter;stroke-miterlimit:10;stroke-opacity:1;stroke-dasharray:none"
         id="path3268"
         inkscape:connector-curvature="0" /></g><text
       transform="scale(1,-1)"
       id="text3270"
       x="264.52499"
       y="-522.66248"><tspan
         style="font-size:8.39999962px;font-variant:normal;font-weight:normal;writing-mode:lr-tb;fill:#0000ee;fill-opacity:1;fill-rule:nonzero;stroke:none;font-family:DejaVu Serif;-inkscape-font-specification:DejaVuSerif"
         x="264.52499 270.11938 275.7222 281.31659 286.9194"
         y="-522.66248"
         sodipodi:role="line"
         id="tspan3272">67873</tspan></text>
<text
       transform="scale(1,-1)"
       id="text3274"
       x="295.31381"
       y="-522.66248"><tspan
         style="font-size:8.39999962px;font-variant:normal;font-weight:normal;writing-mode:lr-tb;fill:#000000;fill-opacity:1;fill-rule:nonzero;stroke:none;font-family:DejaVu Serif;-inkscape-font-specification:DejaVuSerif"
         x="295.31381 298.81659 303.71381 309.3082 312.10541 315.5914 320.49701 326.0914 329.58578 332.3746 337.97739 343.5802 348.46899 351.2662 355.45779 358.95221 363.85779 369.45221"
         y="-522.66248"
         sodipodi:role="line"
         id="tspan3276">(en tant que stop)</tspan></text>
<g
       id="g3278"
       transform="matrix(1,0,0,-1,0,792)"><path
         d="m 58.199,293.051 75.602,0"
         style="fill:none;stroke:#0000ee;stroke-width:0.69999999;stroke-linecap:butt;stroke-linejoin:miter;stroke-miterlimit:10;stroke-opacity:1;stroke-dasharray:none"
         id="path3280"
         inkscape:connector-curvature="0" /></g><text
       transform="scale(1,-1)"
       id="text3282"
       x="58.200001"
       y="-499.73749"><tspan
         style="font-size:8.39999962px;font-variant:normal;font-weight:normal;writing-mode:lr-tb;fill:#0000ee;fill-opacity:1;fill-rule:nonzero;stroke:none;font-family:DejaVu Serif;-inkscape-font-specification:DejaVuSerif"
         x="58.200001 63.794399 68.683197 71.4804 76.369202 81.274803 86.869202 91.766396 95.9664 101.5692 106.458 110.658 113.4552 119.7468 128.1384"
         y="-499.73749"
         sodipodi:role="line"
         id="tspan3284">Télécharger XML</tspan></text>
<text
       transform="scale(1,-1)"
       id="text3286"
       x="133.8"
       y="-499.73749"><tspan
         style="font-size:8.39999962px;font-variant:normal;font-weight:normal;writing-mode:lr-tb;fill:#000000;fill-opacity:1;fill-rule:nonzero;stroke:none;font-family:DejaVu Serif;-inkscape-font-specification:DejaVuSerif"
         x="133.8 136.58881"
         y="-499.73749"
         sodipodi:role="line"
         id="tspan3288">, </tspan></text>
<g
       id="g3290"
       transform="matrix(1,0,0,-1,0,792)"><path
         d="m 139.398,293.051 67.903,0"
         style="color:#000000;fill:none;stroke:#0000ee;stroke-width:0.69999999;stroke-linecap:butt;stroke-linejoin:miter;stroke-miterlimit:10;stroke-opacity:1;stroke-dasharray:none;stroke-dashoffset:0;marker:none;visibility:visible;display:inline;overflow:visible;enable-background:accumulate"
         id="path3292"
         inkscape:connector-curvature="0" /></g><text
       transform="scale(1,-1)"
       id="text3294"
       style="font-size:8.39999962px;font-style:normal;font-variant:normal;font-weight:normal;font-stretch:normal;text-indent:0;text-align:start;text-decoration:none;line-height:normal;letter-spacing:normal;word-spacing:normal;text-transform:none;direction:ltr;block-progression:tb;writing-mode:lr-tb;text-anchor:start;baseline-shift:baseline;color:#000000;fill:#0000ee;fill-opacity:1;fill-rule:nonzero;stroke:none;stroke-width:1;marker:none;visibility:visible;display:inline;overflow:visible;enable-background:accumulate;font-family:DejaVu Serif;-inkscape-font-specification:DejaVuSerif"
       x="139.39999"
       y="-499.73749"><tspan
         style="font-size:8.39999962px;font-style:normal;font-variant:normal;font-weight:normal;font-stretch:normal;text-indent:0;text-align:start;text-decoration:none;line-height:normal;letter-spacing:normal;word-spacing:normal;text-transform:none;direction:ltr;block-progression:tb;writing-mode:lr-tb;text-anchor:start;baseline-shift:baseline;color:#000000;fill:#0000ee;fill-opacity:1;fill-rule:nonzero;stroke:none;stroke-width:1;marker:none;visibility:visible;display:inline;overflow:visible;enable-background:accumulate;font-family:DejaVu Serif;-inkscape-font-specification:DejaVuSerif"
         x="139.39999 143.5916 148.4888 151.286 155.48601 158.2748 161.07201 163.1636 168.7664 171.55521 175.7552 179.2496 184.1468 188.3468 191.1356 196.7384 202.3412"
         y="-499.73749"
         sodipodi:role="line"
         id="tspan3296">voir l'historique</tspan></text>
<text
       transform="scale(1,-1)"
       id="text3298"
       x="210.08881"
       y="-499.73749"><tspan
         style="font-size:8.39999962px;font-variant:normal;font-weight:normal;writing-mode:lr-tb;fill:#000000;fill-opacity:1;fill-rule:nonzero;stroke:none;font-family:DejaVu Serif;-inkscape-font-specification:DejaVuSerif"
         x="210.08881 214.9944 220.58881"
         y="-499.73749"
         sodipodi:role="line"
         id="tspan3300">ou </tspan></text>
<g
       id="g3302"
       transform="matrix(1,0,0,-1,0,792)"><path
         d="m 223.398,293.051 37.102,0"
         style="fill:none;stroke:#0000ee;stroke-width:0.69999999;stroke-linecap:butt;stroke-linejoin:miter;stroke-miterlimit:10;stroke-opacity:1;stroke-dasharray:none"
         id="path3304"
         inkscape:connector-curvature="0" /></g><text
       transform="scale(1,-1)"
       id="text3306"
       x="223.39999"
       y="-499.73749"><tspan
         style="font-size:8.39999962px;font-variant:normal;font-weight:normal;writing-mode:lr-tb;fill:#0000ee;fill-opacity:1;fill-rule:nonzero;stroke:none;font-family:DejaVu Serif;-inkscape-font-specification:DejaVuSerif"
         x="223.39999 231.8 236.6972 242.3 245.08881 248.5916 251.3804 256.27759"
         y="-499.73749"
         sodipodi:role="line"
         id="tspan3308">modifier</tspan></text>
</g></svg>